<?xml version="1.0" encoding="utf-8"?>
<!-- Generator: Adobe Illustrator 25.4.1, SVG Export Plug-In . SVG Version: 6.00 Build 0)  -->
<svg version="1.1" id="Calque_1" xmlns="http://www.w3.org/2000/svg" xmlns:xlink="http://www.w3.org/1999/xlink" x="0px" y="0px"
	 viewBox="0 0 17 18" style="enable-background:new 0 0 17 18;" xml:space="preserve">
<path d="M15.1,5.3h-2.5V4c0-0.5-0.1-1-0.3-1.5c-0.2-0.5-0.5-0.9-0.9-1.3c-0.4-0.4-0.8-0.7-1.3-0.9C9.6,0.1,9,0,8.5,0
	S7.4,0.1,6.9,0.3S6,0.8,5.6,1.2C5.2,1.5,4.9,2,4.7,2.5C4.5,2.9,4.4,3.5,4.4,4v1.3H0v1.8v9V18h17V5.3H15.1z M6.1,4
	c0-0.6,0.3-1.2,0.7-1.6c0.4-0.4,1-0.7,1.7-0.7S9.7,2,10.2,2.4c0.4,0.4,0.7,1,0.7,1.6v1.3H6.1V4z M15.1,16.2H1.9v-9h13.2V16.2z"/>
</svg>
