<?xml version="1.0" encoding="utf-8"?>
<!-- Generator: Adobe Illustrator 25.4.1, SVG Export Plug-In . SVG Version: 6.00 Build 0)  -->
<svg version="1.1" id="Calque_1" xmlns="http://www.w3.org/2000/svg" xmlns:xlink="http://www.w3.org/1999/xlink" x="0px" y="0px"
	 viewBox="0 0 14 22" style="enable-background:new 0 0 14 22;" xml:space="preserve">
<path d="M7,14.7c1,0,1.8-0.4,2.5-1.1c0.7-0.7,1-1.6,1-2.6V3.7c0-1-0.3-1.9-1-2.6S8,0,7,0S5.2,0.4,4.5,1.1s-1,1.6-1,2.6V11
	c0,1,0.3,1.9,1,2.6C5.2,14.3,6,14.7,7,14.7z M13.1,8.2c-0.3,0-0.5,0.1-0.6,0.3c-0.2,0.2-0.2,0.4-0.2,0.7V11c0,0.8-0.1,1.5-0.4,2.1
	c-0.3,0.7-0.7,1.2-1.1,1.7c-0.5,0.5-1,0.9-1.7,1.2c-0.6,0.3-1.3,0.4-2,0.4s-1.4-0.1-2-0.4c-0.6-0.3-1.2-0.7-1.7-1.2
	s-0.9-1.1-1.1-1.7C2,12.4,1.9,11.7,1.9,11V9.2c0-0.3-0.1-0.5-0.2-0.7C1.4,8.3,1.1,8.2,0.9,8.2c-0.3,0-0.5,0.1-0.6,0.3
	C0.1,8.7,0,8.9,0,9.2V11c0,0.9,0.2,1.8,0.5,2.7c0.3,0.8,0.7,1.6,1.3,2.2C2.3,16.5,3,17,3.7,17.4c0.8,0.4,1.6,0.7,2.4,0.8v1.9H3.5
	c-0.3,0-0.5,0.1-0.6,0.2c-0.2,0.2-0.2,0.4-0.2,0.7c0,0.3,0.1,0.5,0.2,0.7C3,21.9,3.2,22,3.5,22h7c0.3,0,0.5-0.1,0.6-0.2
	c0.2-0.2,0.2-0.4,0.2-0.7c0-0.3-0.1-0.5-0.2-0.7c-0.2-0.2-0.4-0.2-0.6-0.2H7.9v-1.9c0.8-0.1,1.6-0.4,2.4-0.8c0.7-0.4,1.4-1,1.9-1.6
	c0.6-0.6,1-1.4,1.3-2.2S14,12,14,11.1V9.2c0-0.3-0.1-0.5-0.2-0.7C13.6,8.3,13.4,8.2,13.1,8.2z"/>
</svg>
