<?xml version="1.0" encoding="utf-8"?>
<!-- Generator: Adobe Illustrator 25.4.1, SVG Export Plug-In . SVG Version: 6.00 Build 0)  -->
<svg version="1.1" id="Calque_1" xmlns="http://www.w3.org/2000/svg" xmlns:xlink="http://www.w3.org/1999/xlink" x="0px" y="0px"
	 viewBox="0 0 129.7 131" style="enable-background:new 0 0 129.7 131;" xml:space="preserve">
<path d="M124.7,60.2c2.5-12.8-1-26-9.4-35.6c-2.8-3.1-6-5.8-9.6-7.9l0,0c-2.7-1.5-5.9-2.6-9.2-3.4c-0.8-0.8-1.6-1.6-2.4-2.4
	C84.3,2,70.8-1.8,58.1,0.8c-4.1,0.8-8,2.3-11.6,4.3l0-0.1c-2.7,1.6-5.4,4-7.7,6.5c-3.4,0.3-6.7,0.9-9.9,2
	C16.3,17.6,6.2,27.4,2.1,39.7c-1.4,4.2-2.1,8.6-2,13l-0.1,0c0.2,5.8,2,11.8,5.3,17.8c-2.6,12.9,0.9,26.2,9.3,35.8
	c2.9,3.3,6.4,6.1,10.3,8.3l0,0c2.6,1.4,5.5,2.4,8.6,3.2c0.7,0.8,1.5,1.5,2.3,2.2c7.8,7.1,17.9,10.9,28.1,10.9c2.6,0,5.3-0.3,7.9-0.8
	c8.3-2.1,15-5.8,19.9-10.8c3.2-0.3,6.3-0.9,9.4-1.9c12.6-4.1,22.6-13.9,26.8-26.2C131.1,79.4,130,68.6,124.7,60.2z M96.8,110.2
	c-1.4,3-3.3,5.7-5.6,8.2c-7.6,0.7-15.5-0.7-23.3-3.9c0.1-0.1,0.3-0.1,0.4-0.2c9.5-3.9,17.3-10,23.5-17.1c0.2-0.1,0.4-0.2,0.7-0.3
	c4.2-1.9,8-4.1,11.5-6.6C102.7,97.3,100.3,104,96.8,110.2L96.8,110.2z M57.6,116.6L57.6,116.6c-8.9,1.8-16.8,1.9-23.6,0.4
	c-6.7-7.1-10.9-16.3-12.3-27.1c0.1,0.1,0.2,0.2,0.3,0.3c7.5,5.7,15.8,9.4,24.2,11.3c2.4,2.3,5,4.4,7.5,6.3c3.8,2.7,7.6,4.9,11.5,6.7
	C62.7,115.3,60.2,116,57.6,116.6z M7.8,72.8c0-0.1-0.1-0.1-0.1-0.2c-0.5-0.8-0.9-1.5-1.3-2.3c0,0,0-0.1,0-0.1
	c2.3-10.7,8.6-20.1,18.1-27.5c0,0.2-0.1,0.3-0.1,0.5c-0.6,4.9-0.7,9.6-0.2,14.3c-2,5.7-3.3,11.3-3.8,16.7c-0.4,4.6-0.4,9,0,13.3
	c-2-1.7-3.9-3.6-5.7-5.5l0,0C12,78.9,9.7,75.9,7.8,72.8z M32.2,22.4L32.2,22.4c1.5-3,4-6.6,7-9.9c7.4-0.6,15.2,0.8,22.8,3.9
	c-0.1,0.1-0.3,0.1-0.4,0.2c-9.5,3.9-17.3,9.9-23.5,17c-0.2,0.1-0.5,0.2-0.7,0.3c-4.2,1.9-8.1,4.1-11.5,6.6
	C27,34.2,29.2,28.1,32.2,22.4z M83.6,13L83.6,13c3.4-0.2,8,0.2,12.5,1.2c6.6,7,10.7,16.3,12.2,26.9c-0.1-0.1-0.2-0.2-0.3-0.3
	c-7.4-5.7-15.7-9.4-24.2-11.3c-2.4-2.3-5-4.4-7.5-6.3c-3.8-2.7-7.6-4.9-11.5-6.7C70.8,14.3,77.1,13.2,83.6,13z M108.5,56.6
	c-0.4,4.5-1.5,9.4-3.1,14.3C103.2,55,95,40.9,85.1,30.8c7.8,2,15.3,5.5,22.2,10.8c0.4,0.3,0.8,0.6,1.1,0.9
	C108.9,47,108.9,51.7,108.5,56.6z M91,96.5c-12.1,5.2-28.5,7.5-44.4,3.9C35.8,90,27,74.8,25.2,57.7c2.9-8.1,7.4-16.2,13.5-23.2
	c12.4-5.4,28.7-7.7,44.5-4.1c10.7,10.4,19.6,25.5,21.5,42.7C101.7,81.2,97.2,89.4,91,96.5z M75.6,24c2.1,1.5,4.2,3.2,6.2,5
	c-14.7-3-29.7-1-41.6,3.7c5.9-6.3,13.1-11.6,21.7-15.2c0.5-0.2,0.9-0.4,1.4-0.5C67.5,18.8,71.6,21.1,75.6,24z M36.6,35.5
	c-5,6.1-8.8,13-11.5,19.9c-0.3-3.9-0.2-7.9,0.4-12c0.1-0.5,0.2-1,0.2-1.5C28.9,39.5,32.6,37.4,36.6,35.5z M21.4,74.4
	c0.4-4.7,1.5-9.6,3.1-14.5c2.2,15.9,10.3,30,20.2,40.1c-7.8-2-15.3-5.4-22.1-10.6c-0.4-0.3-0.8-0.6-1.1-0.9C21,84,21,79.3,21.4,74.4
	z M54.3,107c-2.1-1.5-4.2-3.2-6.2-5.1c4.8,1,9.6,1.4,14.3,1.4c9.7,0,19.1-1.9,27-5c-5.8,6.3-13,11.6-21.5,15.1
	c-0.5,0.2-0.9,0.3-1.4,0.5C62.4,112.1,58.3,109.8,54.3,107z M93.4,95.4c5-6.1,8.8-13,11.5-19.9c0.3,3.9,0.2,7.9-0.4,12
	c-0.1,0.5-0.2,1-0.2,1.5C101,91.4,97.3,93.5,93.4,95.4z M105.5,87.6c0.6-4.9,0.7-9.6,0.2-14.3c2-5.7,3.3-11.3,3.8-16.7
	c0.4-4.6,0.4-9,0-13.3c5.4,4.6,9.9,10,13.5,16.2l0.1,0c0.2,0.3,0.3,0.5,0.5,0.8c0,0.1,0,0.2,0,0.3c-2.3,10.7-8.6,20.1-18.1,27.5
	C105.4,87.9,105.5,87.8,105.5,87.6z M103.9,16.8L103.9,16.8c4,2.1,7.6,5,10.6,8.4c8,9.1,11.4,21.6,9.3,33.7c0,0,0-0.1-0.1-0.1
	l-0.1,0c-3.8-6.5-8.6-12.1-14.4-16.9c-1.3-10.8-5.2-20.1-11.6-27.4C99.9,15.2,102,15.9,103.9,16.8z M45.8,6.7L45.8,6.7
	c3.9-2.4,8.1-4.1,12.6-5C70.7-0.7,83.9,3,93.5,11.6c0.4,0.4,0.9,0.8,1.3,1.2c-3.3-0.6-6.5-0.9-9.3-0.9l0,0c-7.6,0-15,1.4-22.1,4
	c-7.7-3.3-15.6-4.9-23.2-4.5C42,9.7,43.8,8,45.8,6.7z M3,40c4-12,13.8-21.5,26.2-25.5c2.8-0.9,5.7-1.5,8.6-1.8
	c-2.2,2.5-4.1,5.2-5.5,7.6l0,0c-3.8,6.6-6.3,13.7-7.6,21.1C14.8,48.8,8.2,58.3,5.6,69.1C2.9,63.8,1.3,58.5,1,53.4l0,0
	C0.9,48.8,1.6,44.3,3,40z M26,114.1L26,114.1c-4-2.2-7.6-5-10.6-8.4C7.4,96.6,4,84.1,6.1,71.9c0.2,0.4,0.5,0.8,0.7,1.2
	c0,0.1,0.1,0.1,0.1,0.2c3.7,6,8.3,11.2,13.6,15.7c1.3,10.8,5.2,20.2,11.7,27.6C30,115.9,27.9,115.1,26,114.1z M71.6,129.2
	c-12.4,2.5-25.5-1.2-35.2-9.9c-0.4-0.4-0.8-0.7-1.1-1.1c2.8,0.5,5.8,0.8,8.9,0.8c0.1,0,0.2,0,0.3,0l0,0c7.6,0,15-1.4,22.1-4
	c7,3,14,4.5,20.9,4.5c0.9,0,1.8,0,2.7-0.1C85.4,123.9,79.2,127.2,71.6,129.2z M126.9,90.9c-4,12-13.8,21.5-26.1,25.5
	c-2.6,0.9-5.3,1.4-8.1,1.8c2.1-2.3,3.8-4.9,5.1-7.8l-0.1,0c3.7-6.5,6.2-13.5,7.4-20.9c10-7.4,16.6-17,19.2-27.9
	C129.1,69.7,130,79.8,126.9,90.9z"/>
</svg>
