<?xml version="1.0" encoding="utf-8"?>
<!-- Generator: Adobe Illustrator 25.4.1, SVG Export Plug-In . SVG Version: 6.00 Build 0)  -->
<svg version="1.1" id="Calque_1" xmlns="http://www.w3.org/2000/svg" xmlns:xlink="http://www.w3.org/1999/xlink" x="0px" y="0px"
	 viewBox="0 0 110 20" style="enable-background:new 0 0 110 20;" xml:space="preserve">
<path d="M9.7,20c5,0,8.5-2.8,8.9-7h-4.1c-0.3,2-2.2,3.4-4.7,3.4c-3.1,0-5.5-2.2-5.5-6.3c0-4.2,2.4-6.4,5.5-6.4
	c2.4,0,4.3,1.4,4.6,3.4h4.3c-0.5-4.2-4.1-7-9-7C4.5,0.1,0,3.5,0,10.1C0,16.6,4.5,20,9.7,20z"/>
<path d="M30.2,20c5.7,0,9.9-4.2,9.9-9.9c0-5.7-4.2-9.9-9.9-9.9c-5.7,0-9.9,4.2-9.9,9.9C20.3,15.8,24.5,20,30.2,20z M30.2,16.4
	c-3.3,0-5.7-2.7-5.7-6.3c0-3.6,2.4-6.4,5.7-6.4s5.7,2.7,5.7,6.4C35.9,13.7,33.5,16.4,30.2,16.4z"/>
<path d="M57.3,14.4c-0.2-1.7-1-3.1-2.2-3.9c1.5-0.8,2.4-2.1,2.4-4.1c0-3.6-2.4-6.1-6.5-6.1h-8.2v19.4H47v-7.1h3.8
	c1.3,0,2.2,0.9,2.4,2.2l0.5,4.8h4.1L57.3,14.4z M47,3.8h3.8c1.9,0,2.7,1.2,2.7,2.6c0,1.4-0.8,2.7-2.7,2.7H47V3.8z"/>
<path d="M74,19.8h4.3L71,0.3h-4l-7.4,19.4H64l1.5-4.2h7L74,19.8z M66.7,12L69,5.7l2.2,6.3H66.7z"/>
<path d="M80,19.8h4.2V0.3H80V19.8z"/>
<path d="M87.8,19.8h13v-3.6H92V0.3h-4.2V19.8z"/>
<path d="M106.1,7.5c2.2,0,3.9-1.6,3.9-3.7c0-2.1-1.7-3.8-3.9-3.8c-2.2,0-3.8,1.6-3.8,3.8C102.3,5.9,103.9,7.5,106.1,7.5z M106.1,5.2
	c-0.9,0-1.5-0.6-1.5-1.4c0-0.9,0.6-1.4,1.5-1.4c0.9,0,1.5,0.6,1.5,1.4C107.6,4.6,107,5.2,106.1,5.2z"/>
</svg>
