<?xml version="1.0" encoding="utf-8"?>
<!-- Generator: Adobe Illustrator 25.4.1, SVG Export Plug-In . SVG Version: 6.00 Build 0)  -->
<svg version="1.1" id="Calque_1" xmlns="http://www.w3.org/2000/svg" xmlns:xlink="http://www.w3.org/1999/xlink" x="0px" y="0px"
	 viewBox="0 0 27 17.5" style="enable-background:new 0 0 27 17.5;" xml:space="preserve">
<path d="M26.3,4.8c-0.4-0.3-1-0.4-1.5-0.2L23.7,5c-0.6,0.2-1.2,0.1-1.7-0.2c-0.5-0.4-0.7-0.9-0.7-1.5c0.1-1.2-0.5-2.2-1.6-2.8
	c-1.1-0.6-2.5-0.5-3.4,0.2c-3.2,2.5-7,4.9-10.2,6.5C2.4,8.9,0,12.3,0,15.9v1.6h27V6.1C27,5.5,26.7,5,26.3,4.8z M7,8.9
	c0.9-0.4,1.9-1,2.9-1.5l2.1,3l1.6-1.1l-2-2.9c0.6-0.4,1.2-0.7,1.7-1.1l2.4,3.3l1.6-1.2L15,4.1c0.9-0.6,1.7-1.3,2.6-1.9
	C18,1.9,18.5,2,18.8,2.2c0.2,0.1,0.6,0.4,0.5,0.9c-0.1,1.3,0.4,2.5,1.5,3.3c1,0.8,2.4,1,3.6,0.5L25,6.7v5.1H3.5
	C4.3,10.6,5.5,9.6,7,8.9z M2,15.5c0-0.6,0.2-1.2,0.4-1.8H25v1.8H2z"/>
</svg>
