<?xml version="1.0" encoding="utf-8"?>
<!-- Generator: Adobe Illustrator 25.4.1, SVG Export Plug-In . SVG Version: 6.00 Build 0)  -->
<svg version="1.1" id="Calque_1" xmlns="http://www.w3.org/2000/svg" xmlns:xlink="http://www.w3.org/1999/xlink" x="0px" y="0px"
	 viewBox="0 0 28.5 21.6" style="enable-background:new 0 0 28.5 21.6;" xml:space="preserve">
<path d="M21.4,0h-3.5v0.1h-1c0,1.5-1.2,2.7-2.7,2.7c-1.5,0-2.7-1.2-2.7-2.7h-1V0H7L0,6.2l4.6,5.9l2.2-1.7v11.2h14.9V10.4l2.2,1.7
	l4.6-5.9L21.4,0z M23.5,9.2l-3.9-3v13.3H8.8V6.2l-3.9,3L2.8,6.5l5-4.4h2.1c0.8,1.6,2.4,2.8,4.3,2.8s3.6-1.1,4.3-2.8h2.1l5,4.4
	L23.5,9.2z"/>
</svg>
