<?xml version="1.0" encoding="utf-8"?>
<!-- Generator: Adobe Illustrator 25.4.1, SVG Export Plug-In . SVG Version: 6.00 Build 0)  -->
<svg version="1.1" id="Calque_1" xmlns="http://www.w3.org/2000/svg" xmlns:xlink="http://www.w3.org/1999/xlink" x="0px" y="0px"
	 viewBox="0 0 101.9 101.9" style="enable-background:new 0 0 101.9 101.9;" xml:space="preserve">
<path d="M81.8,0h-1.4H61.7h-1.4H41.6h-1.4H21.5h-1.4H0v20.1v1.4v18.7v1.4v18.7v1.4v18.7v1.4v20.1h20.1h1.4h18.7h1.4h18.7h1.4h18.7
	h1.4h20.1V81.8v-1.4V61.7v-1.4V41.6v-1.4V21.5v-1.4V0H81.8z M80.4,40.2H61.7V21.5h18.7V40.2z M80.4,60.3H61.7V41.6h18.7V60.3z
	 M80.4,76.6c-6.8-1.5-13.3-5.8-18.7-11v-3.9h18.7V76.6z M40.2,80.4H21.5V61.7h18.7V80.4z M21.5,41.6h18.7v18.7H21.5V41.6z
	 M21.5,29.7c6.4,1.2,13,4.9,18.7,10.1v0.4H21.5V29.7z M60.3,60.3h-3.5c-2.1-2.6-3.9-5.2-5.4-7.7c-2.1-4-4.8-7.7-7.9-11h16.8V60.3z
	 M41.6,41.6h0.5c3.3,3.4,6.2,7.3,8.4,11.5c1.5,2.6,3.2,5.1,4.9,7.3H41.6V41.6z M60.3,61.7v2.5c-0.8-0.8-1.6-1.7-2.3-2.5H60.3z
	 M60.3,40.2H42.2c-0.2-0.2-0.4-0.4-0.6-0.6V21.5h18.7V40.2z M40.2,38.4c-5.7-5.1-12.3-8.6-18.7-9.7v-7.1h18.7V38.4z M41.6,61.7h15
	c1.2,1.5,2.5,2.8,3.8,4.1v14.7H41.6V61.7z M61.7,67.1c6.3,5.7,13,9.2,18.7,10.5v2.9H61.7V67.1z M80.4,1v19.1H61.7V1H80.4z M60.3,1
	v19.1H41.6V1H60.3z M40.2,1v19.1H21.5V1H40.2z M1,1h19.1v19.1H1V1z M20.1,21.5v6.9C12.8,27.5,6.2,29.7,1,34.9V21.5H20.1z M1,36.2
	L1,36.2c5.2-5.4,11.8-7.7,19.1-6.8v10.8H1V36.2z M1,41.6h19.1v18.7H1V41.6z M1,61.7h19.1v18.7H1V61.7z M1,100.9V81.8h19.1v19.1H1z
	 M21.5,100.9V81.8h18.7v19.1H21.5z M41.6,100.9V81.8h18.7v19.1H41.6z M61.7,100.9V81.8h18.7v19.1H61.7z M100.9,100.9H81.8V81.8h19.1
	V100.9z M81.8,80.4v-2.6c0.3,0,0.6,0.1,0.8,0.1c1,0.1,2,0.2,3,0.2c5.7,0,10.8-2.2,15.3-6.5v8.8H81.8z M100.9,70.4L100.9,70.4
	c-5.2,5.2-11.3,7.4-18.1,6.6c-0.3,0-0.6-0.1-1-0.1V61.7h19.1V70.4z M100.9,60.3H81.8V41.6h19.1V60.3z M100.9,40.2H81.8V21.5h19.1
	V40.2z M81.8,20.1V1h19.1v19.1H81.8z"/>
</svg>
