<?xml version="1.0" encoding="utf-8"?>
<!-- Generator: Adobe Illustrator 25.4.1, SVG Export Plug-In . SVG Version: 6.00 Build 0)  -->
<svg version="1.1" id="Calque_1" xmlns="http://www.w3.org/2000/svg" xmlns:xlink="http://www.w3.org/1999/xlink" x="0px" y="0px"
	 viewBox="0 0 61 56.9" style="enable-background:new 0 0 61 56.9;" xml:space="preserve">
<path d="M22.4,56.9c11.4,0,19.7-6.5,20.5-16h-9.6c-0.8,4.6-5.2,7.7-10.9,7.7c-7.2,0-12.8-5-12.8-14.6s5.6-14.6,12.8-14.6
	c5.6,0,10,3.1,10.7,7.8h10c-1.2-9.7-9.5-16-20.7-16C10.5,11.1,0,18.9,0,34S10.3,56.9,22.4,56.9z"/>
<path d="M52,17.2c5.2,0,9-3.7,9-8.6C61,3.7,57.2,0,52,0s-8.9,3.7-8.9,8.6C43.1,13.5,46.9,17.2,52,17.2z M52,11.9
	c-2,0-3.4-1.3-3.4-3.3c0-2,1.4-3.3,3.4-3.3c2.1,0,3.5,1.3,3.5,3.3C55.5,10.5,54.1,11.9,52,11.9z"/>
</svg>
