<?xml version="1.0" encoding="utf-8"?>
<!-- Generator: Adobe Illustrator 25.4.1, SVG Export Plug-In . SVG Version: 6.00 Build 0)  -->
<svg version="1.1" id="Calque_1" xmlns="http://www.w3.org/2000/svg" xmlns:xlink="http://www.w3.org/1999/xlink" x="0px" y="0px"
	 viewBox="0 0 15.3 11.6" style="enable-background:new 0 0 15.3 11.6;" xml:space="preserve">
<path d="M6.2,3.8c-0.6,0-1.1,0.2-1.5,0.7C4.4,5,4.2,5.6,4.2,6.3v5.3H0V6.1c0-1.8,0.5-3.3,1.5-4.4C2.4,0.6,3.7,0,5.2,0h1.6v3.8H6.2z
	 M8.5,6.1c0-1.8,0.5-3.3,1.5-4.4c1-1.1,2.2-1.7,3.8-1.7h1.6v3.8h-0.7c-0.6,0-1.1,0.2-1.5,0.7c-0.4,0.4-0.5,1-0.5,1.8v5.3H8.5V6.1z"
	/>
</svg>
