<?xml version="1.0" encoding="utf-8"?>
<!-- Generator: Adobe Illustrator 25.4.1, SVG Export Plug-In . SVG Version: 6.00 Build 0)  -->
<svg version="1.1" id="Calque_1" xmlns="http://www.w3.org/2000/svg" xmlns:xlink="http://www.w3.org/1999/xlink" x="0px" y="0px"
	 viewBox="0 0 16 16" style="enable-background:new 0 0 16 16;" xml:space="preserve">
<path d="M15.7,4.3c-0.2-0.7-0.7-1.2-1.4-1.3C13,2.7,8,2.7,8,2.7S3,2.7,1.7,3C1.1,3.2,0.5,3.7,0.3,4.3C0,5.5,0,8,0,8s0,2.5,0.3,3.7
	c0.2,0.7,0.7,1.2,1.4,1.3C3,13.3,8,13.3,8,13.3s5,0,6.3-0.3c0.7-0.2,1.2-0.7,1.4-1.3C16,10.5,16,8,16,8S16,5.5,15.7,4.3z M6.4,10.3
	V5.7L10.6,8L6.4,10.3z"/>
</svg>
