<?xml version="1.0" encoding="utf-8"?>
<!-- Generator: Adobe Illustrator 25.4.1, SVG Export Plug-In . SVG Version: 6.00 Build 0)  -->
<svg version="1.1" id="Calque_1" xmlns="http://www.w3.org/2000/svg" xmlns:xlink="http://www.w3.org/1999/xlink" x="0px" y="0px"
	 viewBox="0 0 18.6 17.5" style="enable-background:new 0 0 18.6 17.5;" xml:space="preserve">
<path d="M1.9,12.9c0.1-1.3,0.2-2.9,0.2-4.2c0-1.3-0.1-2.8-0.2-4.2C0.8,4.3,0,3.4,0,2.3C0,1,1.1,0,2.5,0c1.3,0,2.3,0.9,2.4,2
	c1.4,0.1,3,0.2,4.4,0.2s3-0.1,4.4-0.2c0.2-1.1,1.2-2,2.4-2c1.4,0,2.5,1,2.5,2.3c0,1.1-0.8,2-1.9,2.2c-0.1,1.3-0.2,2.9-0.2,4.2
	c0,1.3,0.1,2.8,0.2,4.2c1.1,0.2,1.9,1.2,1.9,2.2c0,1.3-1.1,2.3-2.5,2.3c-1.3,0-2.3-0.9-2.4-2c-1.4-0.1-3-0.2-4.4-0.2s-3,0.1-4.4,0.2
	c-0.2,1.1-1.2,2-2.4,2c-1.4,0-2.5-1-2.5-2.3C0,14.1,0.8,13.2,1.9,12.9z M3.3,15.6c0.1-0.1,0.1-0.3,0.1-0.4c0-0.1,0-0.2-0.1-0.3
	c-0.1-0.3-0.5-0.5-0.8-0.5c-0.3,0-0.5,0.1-0.7,0.3c-0.1,0.1-0.2,0.3-0.2,0.5c0,0.1,0,0.3,0.1,0.4c0,0,0,0.1,0.1,0.1
	C1.9,15.9,2.2,16,2.5,16C2.8,16,3.1,15.9,3.3,15.6C3.2,15.6,3.2,15.6,3.3,15.6z M3.2,1.9C3.1,1.6,2.8,1.5,2.5,1.5
	c-0.3,0-0.5,0.1-0.7,0.3c0,0-0.1,0.1-0.1,0.1C1.6,2,1.6,2.2,1.6,2.3c0,0.2,0.1,0.4,0.2,0.5C1.9,3,2.2,3.2,2.5,3.2
	c0.4,0,0.7-0.2,0.8-0.5c0-0.1,0.1-0.2,0.1-0.3C3.4,2.2,3.3,2,3.2,1.9C3.2,1.9,3.2,1.9,3.2,1.9z M3.4,4.4c0,0.5,0.1,0.9,0.1,1.4h2.7
	V3.6c-0.6,0-1.1-0.1-1.6-0.1C4.3,3.9,3.9,4.2,3.4,4.4z M6.2,7.3H3.6c0,0.5,0,1,0,1.5s0,1,0,1.5h2.6V7.3z M7.8,3.6v2.2h3.1V3.6
	c-0.5,0-1.1,0-1.6,0C8.8,3.6,8.3,3.6,7.8,3.6z M10.9,7.3H7.8v2.9h3.1V7.3z M15.4,15.6c0.2,0.2,0.4,0.4,0.8,0.4
	c0.3,0,0.5-0.1,0.7-0.3c0,0,0.1-0.1,0.1-0.1c0.1-0.1,0.1-0.3,0.1-0.4c0-0.2-0.1-0.4-0.2-0.5c-0.2-0.2-0.4-0.3-0.7-0.3
	c-0.4,0-0.7,0.2-0.8,0.5c0,0.1-0.1,0.2-0.1,0.3C15.3,15.3,15.3,15.5,15.4,15.6C15.4,15.6,15.4,15.6,15.4,15.6z M15,7.3h-2.6v2.9H15
	c0-0.5,0-1,0-1.5S15,7.8,15,7.3z M15.2,13.1c0-0.5-0.1-0.9-0.1-1.4h-2.7v2.3c0.6,0,1.1,0.1,1.6,0.1C14.3,13.6,14.7,13.3,15.2,13.1z
	 M12.4,5.8h2.7c0-0.5,0.1-1,0.1-1.4c-0.5-0.2-0.9-0.5-1.1-1c-0.5,0-1.1,0.1-1.6,0.1V5.8z M17,1.9c0,0,0-0.1-0.1-0.1
	c-0.2-0.2-0.4-0.3-0.7-0.3c-0.3,0-0.6,0.2-0.8,0.4c0,0,0,0,0,0c-0.1,0.1-0.1,0.3-0.1,0.4c0,0.1,0,0.2,0.1,0.3
	c0.1,0.3,0.5,0.5,0.8,0.5c0.3,0,0.5-0.1,0.7-0.3c0.1-0.1,0.2-0.3,0.2-0.5C17.1,2.2,17,2,17,1.9z M10.9,13.9v-2.2H7.8v2.2
	c0.5,0,1.1,0,1.6,0C9.8,13.8,10.3,13.8,10.9,13.9z M6.2,11.7H3.5c0,0.5-0.1,1-0.1,1.4c0.5,0.2,0.9,0.5,1.1,1c0.5,0,1.1-0.1,1.6-0.1
	V11.7z"/>
</svg>
