<?xml version="1.0" encoding="utf-8"?>
<!-- Generator: Adobe Illustrator 25.4.1, SVG Export Plug-In . SVG Version: 6.00 Build 0)  -->
<svg version="1.1" id="Calque_1" xmlns="http://www.w3.org/2000/svg" xmlns:xlink="http://www.w3.org/1999/xlink" x="0px" y="0px"
	 viewBox="0 0 17 17" style="enable-background:new 0 0 17 17;" xml:space="preserve">
<path d="M8.5,0C3.8,0,0,3.8,0,8.5C0,13.2,3.8,17,8.5,17c4.7,0,8.5-3.8,8.5-8.5C17,3.8,13.2,0,8.5,0z M12.8,6.8
	c0.1,2.9-2,6.1-5.8,6.1c-1.1,0-2.2-0.3-3.1-0.9c1.1,0.1,2.2-0.2,3-0.8C6,11.1,5.3,10.5,5,9.7c0.3,0.1,0.6,0,0.9,0
	c-1-0.2-1.7-1.1-1.6-2c0.3,0.2,0.6,0.2,0.9,0.3C4.3,7.3,4.1,6.1,4.6,5.2c1,1.2,2.5,2,4.2,2.1c-0.3-1.3,0.7-2.5,2-2.5
	c0.6,0,1.1,0.2,1.5,0.6c0.5-0.1,0.9-0.3,1.3-0.5c-0.2,0.5-0.5,0.9-0.9,1.1c0.4,0,0.8-0.2,1.2-0.3C13.5,6.2,13.2,6.5,12.8,6.8z"/>
</svg>
