<?xml version="1.0" encoding="utf-8"?>
<!-- Generator: Adobe Illustrator 25.4.1, SVG Export Plug-In . SVG Version: 6.00 Build 0)  -->
<svg version="1.1" id="Calque_1" xmlns="http://www.w3.org/2000/svg" xmlns:xlink="http://www.w3.org/1999/xlink" x="0px" y="0px"
	 viewBox="0 0 125.5 124.5" style="enable-background:new 0 0 125.5 124.5;" xml:space="preserve">
<path d="M77,108.8l-0.3-1l34.7-10.4c6.4-1.9,11.1-6.9,12.6-13.3c1.5-6.3-0.5-12.8-5.3-17.3L90.9,40.9l0.7-0.7l27.8,25.9
	c5.1,4.7,7.2,11.6,5.6,18.3c-1.6,6.8-6.6,12-13.3,14L77,108.8z"/>
<polygon points="48.6,94.8 45.2,93.5 47.4,90.4 48.2,91 46.8,93 49,93.8 "/>
<polygon points="79.3,109.9 75.9,108.6 78.1,105.6 78.9,106.2 77.5,108.2 79.7,109 "/>
<path d="M46.3,93.7l-0.3-1l47.9-14.3c1.1-0.3,1.9-1.2,2.2-2.3c0.3-1.1-0.1-2.2-0.9-3l-5.9-5.5l0.7-0.7l5.9,5.5
	c1.1,1,1.5,2.5,1.2,3.9c-0.3,1.5-1.4,2.6-2.9,3L46.3,93.7z"/>
<path d="M19.6,124.5c-5,0-9.8-1.9-13.6-5.5c-5-4.7-7-11.5-5.5-18.1l8-34.7l1,0.2l-8,34.7C0,107.4,2,113.8,6.7,118.3
	c4.9,4.6,11.7,6.3,18.2,4.4l36.7-10.6l0.3,1l-36.7,10.6C23.3,124.2,21.4,124.5,19.6,124.5z"/>
<polygon points="37.3,48.5 36.2,46.3 34.4,47.8 33.8,47 36.6,44.7 38.2,48.1 "/>
<polygon points="9.9,69.2 8.9,67 7,68.4 6.4,67.6 9.2,65.4 10.8,68.8 "/>
<path d="M28.8,98.5c-1.1,0-2.1-0.4-2.9-1.2c-1.1-1-1.5-2.5-1.2-3.9l11.2-47.8l1,0.2L25.7,93.6c-0.3,1.1,0.1,2.2,0.9,3
	c0.8,0.8,2,1.1,3.1,0.8l7.8-2.2l0.3,1L30,98.3C29.6,98.4,29.2,98.5,28.8,98.5z"/>
<path d="M13.2,51.4l-1-0.2l8.9-36.5c1.6-6.6,6.5-11.8,13.2-13.8c6.8-2.1,14-0.5,19.2,4.3l26.6,24.3l-0.7,0.7L52.9,5.9
	c-5-4.5-11.8-6.1-18.2-4.1c-6.3,1.9-11,6.8-12.5,13.1L13.2,51.4z"/>
<polygon points="83.9,61.9 80.2,61.6 80.3,60.6 82.7,60.8 82.4,58.6 83.4,58.4 "/>
<polygon points="80.5,30.5 76.8,30.2 76.9,29.2 79.3,29.4 79,27.1 80,27 "/>
<path d="M82.9,61.6L46.2,28.1c-0.9-0.8-2-1-3.2-0.7c-1.1,0.3-1.9,1.2-2.2,2.3L39,37.4l-1-0.2l1.9-7.8c0.3-1.4,1.4-2.5,2.8-3
	c1.5-0.4,3-0.1,4.1,0.9l36.7,33.6L82.9,61.6z"/>
</svg>
