<?xml version="1.0" encoding="utf-8"?>
<!-- Generator: Adobe Illustrator 25.4.1, SVG Export Plug-In . SVG Version: 6.00 Build 0)  -->
<svg version="1.1" id="Calque_1" xmlns="http://www.w3.org/2000/svg" xmlns:xlink="http://www.w3.org/1999/xlink" x="0px" y="0px"
	 viewBox="0 0 22 24" style="enable-background:new 0 0 22 24;" xml:space="preserve">
<style type="text/css">
	.st0{fill-rule:evenodd;clip-rule:evenodd;}
</style>
<path class="st0" d="M8,3h6V1.2c0-0.1,0-0.1-0.1-0.2S13.8,1,13.8,1H8.2C8.2,1,8.1,1,8.1,1.1S8,1.2,8,1.2V3z M19,4H3v18
	c0,0.6,0.4,1,1,1h14c0.6,0,1-0.4,1-1V4z M9,7.5C9,7.2,8.8,7,8.5,7S8,7.2,8,7.5v12C8,19.8,8.2,20,8.5,20S9,19.8,9,19.5V7.5z M14,7.5
	C14,7.2,13.8,7,13.5,7S13,7.2,13,7.5v12c0,0.3,0.2,0.5,0.5,0.5s0.5-0.2,0.5-0.5V7.5z M22,3v1h-2v18c0,1.1-0.9,2-2,2H4
	c-1.1,0-2-0.9-2-2V4H0V3h7V1c0-0.6,0.4-1,1-1h6c0.6,0,1,0.4,1,1v2H22z"/>
</svg>
