<?xml version="1.0" encoding="utf-8"?>
<!-- Generator: Adobe Illustrator 25.4.1, SVG Export Plug-In . SVG Version: 6.00 Build 0)  -->
<svg version="1.1" id="Calque_1" xmlns="http://www.w3.org/2000/svg" xmlns:xlink="http://www.w3.org/1999/xlink" x="0px" y="0px"
	 viewBox="0 0 24.9 20.1" style="enable-background:new 0 0 24.9 20.1;" xml:space="preserve">
<path d="M22.6,2.8c-0.1-0.1-0.1-0.1-0.2-0.2l-0.9-1.1c-1.9-2.3-5.5-2-7.1,0.5l-0.1,0.2c-0.8,1.3-2.6,1.3-3.3,0
	C9.4-0.3,5.7-0.4,3.9,2.1L3.5,2.7C3.1,3.2,2.7,3.5,2.3,3.6C1.5,3.9,0.7,3.8,0,3.3v2.5C0.7,6.1,1.5,6.1,2.3,6c1.2-0.2,2.3-0.9,3-1.9
	l0.5-0.7C6.6,2.2,8.3,2.3,9,3.5c1.6,2.7,5.6,2.7,7.2,0l0.1-0.2C17.1,2,18.8,1.9,19.8,3l0.9,1.1c0.5,0.7,1.2,1.1,1.9,1.5
	C23.3,5.9,24.1,6,24.9,6V3.8C24,3.8,23.2,3.5,22.6,2.8L22.6,2.8z"/>
<path d="M22.4,9.7l-0.9-1.1c-1.9-2.3-5.5-2-7.1,0.5l-0.1,0.2c-0.8,1.3-2.6,1.3-3.3,0C9.4,6.7,5.7,6.6,3.9,9.1L3.5,9.8
	c-0.3,0.4-0.7,0.7-1.2,0.9c-0.7,0.3-1.6,0.2-2.3-0.3v2.5c0.7,0.2,1.5,0.3,2.3,0.1c1.2-0.2,2.3-0.9,3-1.9l0.5-0.7
	C6.6,9.3,8.3,9.3,9,10.5c1.6,2.7,5.6,2.7,7.2,0l0.1-0.2c0.7-1.2,2.5-1.4,3.4-0.3l0.9,1.1c0.5,0.7,1.2,1.1,1.9,1.5
	c0.7,0.3,1.5,0.5,2.3,0.5v-2.3c-0.8,0-1.6-0.3-2.3-0.9C22.5,9.8,22.5,9.8,22.4,9.7L22.4,9.7z"/>
<path d="M22.4,16.7l-0.9-1.1c-1.9-2.3-5.5-2-7.1,0.5l-0.1,0.2c-0.8,1.3-2.6,1.3-3.3,0c-1.6-2.6-5.3-2.7-7.1-0.2l-0.5,0.7
	c-0.3,0.4-0.7,0.7-1.2,0.9C1.5,18,0.7,17.9,0,17.4v2.5c0.7,0.2,1.5,0.3,2.3,0.1c1.2-0.2,2.3-0.9,3-1.9l0.5-0.7
	c0.8-1.2,2.5-1.1,3.3,0.1c1.6,2.7,5.6,2.7,7.2,0l0.1-0.2c0.7-1.2,2.5-1.4,3.4-0.3l0.9,1.1c0.5,0.7,1.2,1.1,1.9,1.5
	c0.7,0.3,1.5,0.5,2.3,0.5v-2.3c-0.8,0-1.6-0.3-2.3-0.9C22.5,16.9,22.5,16.8,22.4,16.7L22.4,16.7z"/>
</svg>
