<?xml version="1.0" encoding="utf-8"?>
<!-- Generator: Adobe Illustrator 25.4.1, SVG Export Plug-In . SVG Version: 6.00 Build 0)  -->
<svg version="1.1" id="Calque_1" xmlns="http://www.w3.org/2000/svg" xmlns:xlink="http://www.w3.org/1999/xlink" x="0px" y="0px"
	 viewBox="0 0 15.4 13.9" style="enable-background:new 0 0 15.4 13.9;" xml:space="preserve">
<path d="M3.4,6.8c1.6,0,3-1.2,3.3-2.7h8.7V2.9H6.8C6.5,1.2,5.1,0,3.4,0C1.5,0,0,1.5,0,3.4S1.5,6.8,3.4,6.8z M3.4,1.2
	c1.2,0,2.2,1,2.2,2.2s-1,2.2-2.2,2.2s-2.2-1-2.2-2.2S2.2,1.2,3.4,1.2z"/>
<path d="M12,7.1c-1.7,0-3.1,1.2-3.4,2.9H0v1.2h8.7c0.3,1.6,1.7,2.7,3.3,2.7c1.9,0,3.4-1.5,3.4-3.4S13.9,7.1,12,7.1z M12,12.7
	c-1.2,0-2.2-1-2.2-2.2s1-2.2,2.2-2.2s2.2,1,2.2,2.2S13.2,12.7,12,12.7z"/>
</svg>
