<?xml version="1.0" encoding="utf-8"?>
<!-- Generator: Adobe Illustrator 25.4.1, SVG Export Plug-In . SVG Version: 6.00 Build 0)  -->
<svg version="1.1" id="Calque_1" xmlns="http://www.w3.org/2000/svg" xmlns:xlink="http://www.w3.org/1999/xlink" x="0px" y="0px"
	 viewBox="0 0 112 112" style="enable-background:new 0 0 112 112;" xml:space="preserve">
<path d="M112,56c0-30.9-25.1-56-56-56C25.1,0,0,25.1,0,56c0,30.2,24.1,54.9,54.1,56c0.5,0,1,0,1.5,0c0.1,0,0.1,0,0.2,0
	c0,0,0,0,0.1,0c0,0,0.1,0,0.1,0c0.6,0,1.3,0,1.9-0.1C87.9,110.9,112,86.2,112,56z M55.9,111c-0.2,0-0.4,0-0.6,0
	c-8.7-0.2-15.7-7.4-15.7-16.1c0-8.9,7.2-16.1,16.1-16.1S71.9,86,71.9,94.9C71.9,103.7,64.8,110.9,55.9,111z M72.9,94.9
	c0-9.4-7.7-17.1-17.1-17.1c-9.4,0-17.1,7.7-17.1,17.1c0,5.8,2.9,11,7.4,14.1c-9-3.9-15.3-12.8-15.3-23.2c0-13.9,11.3-25.2,25.2-25.2
	s25.2,11.3,25.2,25.2c0,10.8-6.8,20-16.4,23.6C69.7,106.4,72.9,101,72.9,94.9z M82.2,85.8c0-14.5-11.8-26.2-26.2-26.2
	c-14.5,0-26.2,11.8-26.2,26.2c0,9.7,5.3,18.1,13.1,22.7c-13-5.2-22.1-17.9-22.1-32.7c0-19.5,15.8-35.3,35.3-35.3
	c19.5,0,35.3,15.8,35.3,35.3c0,14.8-9.2,27.5-22.1,32.7C77,103.9,82.2,95.4,82.2,85.8z M92.3,75.7c0-20-16.3-36.3-36.3-36.3
	c-20,0-36.3,16.3-36.3,36.3c0,13.6,7.6,25.5,18.7,31.7c-16.3-6.9-27.8-23-27.8-41.8c0-25,20.3-45.3,45.3-45.3
	c25,0,45.3,20.3,45.3,45.3c0,18.8-11.5,34.9-27.8,41.8C84.7,101.3,92.3,89.4,92.3,75.7z M78.3,106.2c14.3-7.9,24-23.1,24-40.6
	c0-25.5-20.8-46.3-46.3-46.3S9.7,40.1,9.7,65.7c0,17.5,9.7,32.7,24,40.6C14.4,97.7,1,78.4,1,56C1,25.7,25.7,1,56,1s55,24.7,55,55
	C111,78.4,97.6,97.7,78.3,106.2z"/>
</svg>
