<?xml version="1.0" encoding="utf-8"?>
<!-- Generator: Adobe Illustrator 25.4.1, SVG Export Plug-In . SVG Version: 6.00 Build 0)  -->
<svg version="1.1" id="Calque_1" xmlns="http://www.w3.org/2000/svg" xmlns:xlink="http://www.w3.org/1999/xlink" x="0px" y="0px"
	 viewBox="0 0 16 16" style="enable-background:new 0 0 16 16;" xml:space="preserve">
<path d="M8,0c4.4,0,8,3.6,8,8c0,4-2.9,7.3-6.8,7.9v-5.6h1.9L11.5,8h0v0H9.2V6.5c0-0.6,0.3-1.3,1.3-1.3h1v-2c0,0,0,0,0,0v0
	c0,0-0.9-0.2-1.8-0.2c-1.8,0-3,1.1-3,3.1V8h-2v2.3h0v0h2v5.6c0,0,0,0,0,0v0C2.9,15.4,0,12,0,8C0,3.6,3.6,0,8,0z"/>
</svg>
