<?xml version="1.0" encoding="utf-8"?>
<!-- Generator: Adobe Illustrator 25.4.1, SVG Export Plug-In . SVG Version: 6.00 Build 0)  -->
<svg version="1.1" id="Calque_1" xmlns="http://www.w3.org/2000/svg" xmlns:xlink="http://www.w3.org/1999/xlink" x="0px" y="0px"
	 viewBox="0 0 15.3 11.6" style="enable-background:new 0 0 15.3 11.6;" xml:space="preserve">
<path d="M9.1,7.8c0.6,0,1.1-0.2,1.5-0.7c0.4-0.5,0.5-1.1,0.5-1.8V0h4.2v5.6c0,1.8-0.5,3.3-1.5,4.4c-1,1.1-2.2,1.7-3.8,1.7H8.4V7.8
	H9.1z M0.7,7.8c0.6,0,1.1-0.2,1.5-0.7c0.4-0.5,0.5-1.1,0.5-1.8V0h4.2v5.6c0,1.8-0.5,3.3-1.5,4.4c-1,1.1-2.2,1.7-3.8,1.7H0V7.8H0.7z"
	/>
</svg>
