<?xml version="1.0" encoding="utf-8"?>
<!-- Generator: Adobe Illustrator 25.4.1, SVG Export Plug-In . SVG Version: 6.00 Build 0)  -->
<svg version="1.1" id="Calque_1" xmlns="http://www.w3.org/2000/svg" xmlns:xlink="http://www.w3.org/1999/xlink" x="0px" y="0px"
	 viewBox="0 0 18 18" style="enable-background:new 0 0 18 18;" xml:space="preserve">
<path d="M18,16.4l-4.8-5c1-1.7,1.3-3.7,0.8-5.7c-0.5-1.9-1.7-3.6-3.2-4.6c-0.5-0.3-1.1-0.6-1.6-0.8H9.1C7.2-0.3,5.4,0,3.7,0.9
	S0.8,3.4,0.3,5.3v0.1c-0.4,1.4-0.4,2.9,0,4.4c0.4,1.4,1.3,2.7,2.3,3.6s2.4,1.5,3.8,1.6s2.8-0.2,4.1-0.9c0.5-0.3,0.9-0.6,1.3-0.9
	l4.6,4.8L18,16.4z M9.6,12.2c-0.9,0.5-2,0.7-2.9,0.6c-1-0.1-2-0.5-2.7-1.2C3,11,2.4,10.1,2.2,9.1S1.9,7,2.2,6s0.8-2,1.7-2.7
	c0.8-0.7,1.8-1.1,2.7-1.2c1-0.1,2.1,0.1,2.9,0.6c0.9,0.5,1.7,1.3,2.2,2.2c0.3,0.6,0.5,1.3,0.6,2c0.1,0.7,0,1.4-0.2,2.1
	c-0.2,0.7-0.5,1.3-1,1.9C10.7,11.4,10.2,11.9,9.6,12.2L9.6,12.2z"/>
</svg>
