<?xml version="1.0" encoding="utf-8"?>
<!-- Generator: Adobe Illustrator 25.4.1, SVG Export Plug-In . SVG Version: 6.00 Build 0)  -->
<svg version="1.1" id="Calque_1" xmlns="http://www.w3.org/2000/svg" xmlns:xlink="http://www.w3.org/1999/xlink" x="0px" y="0px"
	 viewBox="0 0 13.9 23.9" style="enable-background:new 0 0 13.9 23.9;" xml:space="preserve">
<path d="M10.1,1c0-0.5-0.3-1-0.8-1H4.6C4.2,0,3.8,0.4,3.8,1v3h6.2V1z"/>
<path d="M12.3,7.7C11.8,7,10.1,5,10.1,5H3.9c0,0-1.3,1.7-1.9,2.3C0.6,8.9,0,9.8,0,11.8v12.1h2c3.4,0,8.6,0,12,0V11.8
	C13.9,10,13.5,9.1,12.3,7.7L12.3,7.7z M11.9,21.9H2v-10c0-1.3,0.3-1.8,1.3-3.1C3.5,8.5,4.1,7.7,4.8,7h4.4c0.7,0.8,1.3,1.6,1.6,2
	c0.9,1.2,1.1,1.7,1.1,3V21.9L11.9,21.9z"/>
</svg>
