<?xml version="1.0" encoding="utf-8"?>
<!-- Generator: Adobe Illustrator 25.4.1, SVG Export Plug-In . SVG Version: 6.00 Build 0)  -->
<svg version="1.1" id="Calque_1" xmlns="http://www.w3.org/2000/svg" xmlns:xlink="http://www.w3.org/1999/xlink" x="0px" y="0px"
	 viewBox="0 0 24 23.3" style="enable-background:new 0 0 24 23.3;" xml:space="preserve">
<path d="M12,23.3c-7.8,0-12-4.9-12-11.2C0,5.4,4.8,0,13.3,0C19.5,0,24,4,24,9.6c0,8.7-10.3,11-9.8,6c-0.7,1.1-1.9,2.4-4.1,2.4
	c-2.5,0-4.1-1.8-4.1-4.8C6.1,8.7,9,5,12.4,5c1.7,0,2.8,0.9,3.3,2.2l0.5-1.6h2.3c-0.2,0.8-2.3,8.5-2.3,8.5c-0.6,2.7,1.4,2.7,3.1,1.3
	c3.3-2.6,3.5-9.3-1-12.1C13.5,0.4,2.5,2.2,2.5,12c0,5.6,3.9,9.4,9.8,9.4c3.4,0,5.5-0.9,7.3-1.9l1.2,1.7C19.1,22.1,16.4,23.3,12,23.3
	z M9.7,9c-0.7,1.3-1.2,3.1-1.2,4.4c0,3.6,3.5,3.6,5.3,0.2c0.7-1.4,1.2-3.2,1.2-4.5C14.9,6.2,11.4,5.7,9.7,9z"/>
</svg>
