<?xml version="1.0" encoding="utf-8"?>
<!-- Generator: Adobe Illustrator 25.4.1, SVG Export Plug-In . SVG Version: 6.00 Build 0)  -->
<svg version="1.1" id="Calque_1" xmlns="http://www.w3.org/2000/svg" xmlns:xlink="http://www.w3.org/1999/xlink" x="0px" y="0px"
	 viewBox="0 0 18.5 18" style="enable-background:new 0 0 18.5 18;" xml:space="preserve">
<path d="M18.5,16.4l-4.9-5c1-1.7,1.3-3.7,0.8-5.7c-0.5-1.9-1.7-3.6-3.3-4.6c-0.5-0.3-1.1-0.6-1.6-0.8l-0.1,0C7.5-0.3,5.6,0,3.9,0.9
	c-1.7,0.9-3,2.5-3.5,4.4l0,0.1c-0.4,1.4-0.4,2.9,0,4.4c0.4,1.4,1.3,2.7,2.4,3.6c1.1,0.9,2.5,1.5,3.9,1.6c1.4,0.1,2.9-0.2,4.2-0.9
	c0.5-0.3,0.9-0.6,1.3-0.9l4.7,4.8L18.5,16.4z M9.9,12.2c-0.9,0.5-2,0.7-3,0.6c-1-0.1-2-0.5-2.8-1.2C3.2,11,2.6,10.1,2.3,9.1
	C2,8.1,2,7,2.3,6S3.1,4,4,3.3c0.8-0.7,1.8-1.1,2.8-1.2c1-0.1,2.1,0.1,3,0.6C10.7,3.2,11.5,4,12,4.9c0.3,0.6,0.5,1.3,0.6,2
	c0.1,0.7,0,1.4-0.2,2.1c-0.2,0.7-0.5,1.3-1,1.9C11,11.4,10.5,11.9,9.9,12.2L9.9,12.2z"/>
</svg>
