<svg width="1279" height="233" fill="none" xmlns="http://www.w3.org/2000/svg"><path d="M112.868 233.002c57.559 0 99.04-32.684 103.221-81.226h-48.234c-3.859 23.3-26.047 39.157-54.987 39.157-36.337 0-64.312-25.242-64.312-73.783 0-48.542 27.975-74.107 64.312-74.107 28.297 0 50.485 15.857 53.7 39.48h50.485c-6.109-48.865-47.591-81.226-104.185-81.226C52.736 1.297 0 40.777 0 117.15c0 76.372 51.771 115.852 112.868 115.852ZM351.265 233.002c65.92 0 114.797-49.188 114.797-115.852S417.185 1.297 351.265 1.297c-66.242 0-115.119 49.189-115.119 115.853 0 66.664 48.877 115.852 115.119 115.852Zm-.322-42.069c-38.587 0-66.241-31.39-66.241-73.783s27.654-74.107 66.241-74.107c38.588 0 66.563 31.714 66.563 74.107s-27.975 73.783-66.563 73.783ZM665.824 167.957c-1.929-19.741-11.255-35.598-25.725-45.63 17.364-9.061 28.298-24.594 28.298-47.247 0-41.422-27.976-71.194-75.889-71.194h-94.86v226.528h48.555v-82.198h43.733c15.113 0 26.046 10.679 27.654 26.213l6.11 55.985h48.234l-6.11-62.457ZM546.203 44.337h43.733c22.187 0 31.834 14.563 31.834 30.743 0 16.504-9.647 31.39-31.834 31.39h-43.733V44.337ZM860.351 230.414h50.163L824.979 3.886h-45.983l-85.535 226.528h50.163l17.686-49.513h81.355l17.686 49.513Zm-84.571-90.288 26.368-73.46 26.047 73.46H775.78ZM930.373 230.414h48.556V3.886h-48.556v226.528ZM1020.81 230.414h150.81v-42.07h-102.25V3.886h-48.56v226.528ZM1233.66 87.051c26.05 0 45.34-18.77 45.34-43.364C1279 18.77 1259.71 0 1233.66 0c-26.05 0-44.7 18.77-44.7 43.688 0 24.594 18.65 43.363 44.7 43.363Zm0-26.86c-9.97 0-17.04-6.795-17.04-16.504 0-10.031 7.07-16.504 17.04-16.504 10.61 0 17.36 6.473 17.36 16.505 0 9.708-6.75 16.504-17.36 16.504Z" fill="#333"/></svg>