<svg xmlns="http://www.w3.org/2000/svg" xmlns:xlink="http://www.w3.org/1999/xlink"><defs><symbol viewBox="0 0 24 24" id="icon-account"><path d="M12 2c3.032 0 5.5 2.467 5.5 5.5 0 1.458-.483 3.196-3.248 5.59 4.111 1.961 6.602 5.253 7.482 8.909H2.248c.955-4.188 4.005-7.399 7.519-8.889C8.166 11.823 6.5 9.787 6.5 7.5 6.5 4.467 8.968 2 12 2zm0-2a7.5 7.5 0 0 0-7.5 7.5c0 2.012.797 3.834 2.086 5.182C1.556 15.691 0 21.183 0 24h24c0-2.791-1.657-8.28-6.59-11.314A7.47 7.47 0 0 0 19.5 7.5 7.5 7.5 0 0 0 12 0z" /></symbol><symbol viewBox="0 0 6 6" id="icon-arrow-up-right"><path d="M.3 0v.9h4.2L0 5.4l.6.6 4.5-4.5v4.2H6V0z" /></symbol><symbol viewBox="0 0 24 23.3" id="icon-at"><path d="M12 23.3c-7.8 0-12-4.9-12-11.2C0 5.4 4.8 0 13.3 0 19.5 0 24 4 24 9.6c0 8.7-10.3 11-9.8 6-.7 1.1-1.9 2.4-4.1 2.4C7.6 18 6 16.2 6 13.2 6.1 8.7 9 5 12.4 5c1.7 0 2.8.9 3.3 2.2l.5-1.6h2.3c-.2.8-2.3 8.5-2.3 8.5-.6 2.7 1.4 2.7 3.1 1.3 3.3-2.6 3.5-9.3-1-12.1C13.5.4 2.5 2.2 2.5 12c0 5.6 3.9 9.4 9.8 9.4 3.4 0 5.5-.9 7.3-1.9l1.2 1.7c-1.7.9-4.4 2.1-8.8 2.1zM9.7 9c-.7 1.3-1.2 3.1-1.2 4.4 0 3.6 3.5 3.6 5.3.2.7-1.4 1.2-3.2 1.2-4.5-.1-2.9-3.6-3.4-5.3-.1z" /></symbol><symbol viewBox="0 0 17 18" id="icon-bag-shopping"><path d="M15.1 5.3h-2.5V4c0-.5-.1-1-.3-1.5-.2-.5-.5-.9-.9-1.3s-.8-.7-1.3-.9C9.6.1 9 0 8.5 0S7.4.1 6.9.3s-.9.5-1.3.9c-.4.3-.7.8-.9 1.3-.2.4-.3 1-.3 1.5v1.3H0V18h17V5.3h-1.9zM6.1 4c0-.6.3-1.2.7-1.6.4-.4 1-.7 1.7-.7s1.2.3 1.7.7c.4.4.7 1 .7 1.6v1.3H6.1V4zm9 12.2H1.9v-9h13.2v9z" /></symbol><symbol viewBox="0 0 21 14" id="icon-bars"><path d="M0 0h21v2H0zM0 6h21v2H0zM0 12h21v2H0z" /></symbol><symbol viewBox="0 0 8 19" id="icon-bars-small"><path d="M0 0h8v3H0zM0 8h8v3H0zM0 16h8v3H0z" /></symbol><symbol viewBox="0 0 13.9 23.9" id="icon-bottle"><path d="M10.1 1c0-.5-.3-1-.8-1H4.6c-.4 0-.8.4-.8 1v3H10V1zM12.3 7.7C11.8 7 10.1 5 10.1 5H3.9S2.6 6.7 2 7.3C.6 8.9 0 9.8 0 11.8v12.1h14V11.8c-.1-1.8-.5-2.7-1.7-4.1zm-.4 14.2H2v-10c0-1.3.3-1.8 1.3-3.1.2-.3.8-1.1 1.5-1.8h4.4c.7.8 1.3 1.6 1.6 2 .9 1.2 1.1 1.7 1.1 3v9.9z" /></symbol><symbol viewBox="0 0 61 56.9" id="icon-c-logo"><path d="M22.4 56.9c11.4 0 19.7-6.5 20.5-16h-9.6c-.8 4.6-5.2 7.7-10.9 7.7-7.2 0-12.8-5-12.8-14.6s5.6-14.6 12.8-14.6c5.6 0 10 3.1 10.7 7.8h10c-1.2-9.7-9.5-16-20.7-16C10.5 11.1 0 18.9 0 34s10.3 22.9 22.4 22.9zM52 17.2c5.2 0 9-3.7 9-8.6C61 3.7 57.2 0 52 0s-8.9 3.7-8.9 8.6c0 4.9 3.8 8.6 8.9 8.6zm0-5.3c-2 0-3.4-1.3-3.4-3.3 0-2 1.4-3.3 3.4-3.3 2.1 0 3.5 1.3 3.5 3.3 0 1.9-1.4 3.3-3.5 3.3z" /></symbol><symbol fill-rule="evenodd" stroke-linejoin="round" stroke-miterlimit="2" viewBox="0 0 24 24" id="icon-check"><path d="m2.25 12.321 7.27 6.491a.749.749 0 0 0 1.058-.059l11.23-12.501a.748.748 0 1 0-1.116-1.001L9.961 17.196 3.25 11.202a.748.748 0 1 0-1 1.119" fill-rule="nonzero" /></symbol><symbol viewBox="0 0 12.8 22.1" id="icon-chevron-left"><path d="M12.8 1.4 11.4 0 0 11.4l10.7 10.7 1.4-1.4-9.3-9.3z" /></symbol><symbol viewBox="0 0 12.8 22.1" id="icon-chevron-right"><path d="m0 20.7 1.4 1.4 11.4-11.4L2.1 0 .7 1.4l9.3 9.3z" /></symbol><symbol viewBox="0 0 20 20" id="icon-close"><path d="M20 1.3 18.6 0 10 8.7 1.4 0 0 1.3 8.7 10 0 18.7 1.4 20l8.6-8.7 8.6 8.7 1.4-1.3-8.7-8.7z" /></symbol><symbol viewBox="0 0 110 20" id="icon-corail-logo"><path d="M9.7 20c5 0 8.5-2.8 8.9-7h-4.1c-.3 2-2.2 3.4-4.7 3.4-3.1 0-5.5-2.2-5.5-6.3 0-4.2 2.4-6.4 5.5-6.4 2.4 0 4.3 1.4 4.6 3.4h4.3c-.5-4.2-4.1-7-9-7C4.5.1 0 3.5 0 10.1 0 16.6 4.5 20 9.7 20zM30.2 20c5.7 0 9.9-4.2 9.9-9.9S35.9.2 30.2.2s-9.9 4.2-9.9 9.9 4.2 9.9 9.9 9.9zm0-3.6c-3.3 0-5.7-2.7-5.7-6.3 0-3.6 2.4-6.4 5.7-6.4s5.7 2.7 5.7 6.4c0 3.6-2.4 6.3-5.7 6.3zM57.3 14.4c-.2-1.7-1-3.1-2.2-3.9 1.5-.8 2.4-2.1 2.4-4.1 0-3.6-2.4-6.1-6.5-6.1h-8.2v19.4H47v-7.1h3.8c1.3 0 2.2.9 2.4 2.2l.5 4.8h4.1l-.5-5.2zM47 3.8h3.8c1.9 0 2.7 1.2 2.7 2.6 0 1.4-.8 2.7-2.7 2.7H47V3.8zM74 19.8h4.3L71 .3h-4l-7.4 19.4H64l1.5-4.2h7l1.5 4.3zM66.7 12 69 5.7l2.2 6.3h-4.5zM80 19.8h4.2V.3H80v19.5zM87.8 19.8h13v-3.6H92V.3h-4.2v19.5zM106.1 7.5c2.2 0 3.9-1.6 3.9-3.7S108.3 0 106.1 0s-3.8 1.6-3.8 3.8c0 2.1 1.6 3.7 3.8 3.7zm0-2.3c-.9 0-1.5-.6-1.5-1.4 0-.9.6-1.4 1.5-1.4s1.5.6 1.5 1.4c0 .8-.6 1.4-1.5 1.4z" /></symbol><symbol viewBox="0 0 101.9 101.9" id="icon-decor-01"><path d="M81.8 0H0v101.9h101.9V0H81.8zm-1.4 40.2H61.7V21.5h18.7v18.7zm0 20.1H61.7V41.6h18.7v18.7zm0 16.3c-6.8-1.5-13.3-5.8-18.7-11v-3.9h18.7v14.9zm-40.2 3.8H21.5V61.7h18.7v18.7zM21.5 41.6h18.7v18.7H21.5V41.6zm0-11.9c6.4 1.2 13 4.9 18.7 10.1v.4H21.5V29.7zm38.8 30.6h-3.5c-2.1-2.6-3.9-5.2-5.4-7.7-2.1-4-4.8-7.7-7.9-11h16.8v18.7zM41.6 41.6h.5c3.3 3.4 6.2 7.3 8.4 11.5 1.5 2.6 3.2 5.1 4.9 7.3H41.6V41.6zm18.7 20.1v2.5c-.8-.8-1.6-1.7-2.3-2.5h2.3zm0-21.5H42.2l-.6-.6V21.5h18.7v18.7zm-20.1-1.8c-5.7-5.1-12.3-8.6-18.7-9.7v-7.1h18.7v16.8zm1.4 23.3h15c1.2 1.5 2.5 2.8 3.8 4.1v14.7H41.6V61.7zm20.1 5.4c6.3 5.7 13 9.2 18.7 10.5v2.9H61.7V67.1zM80.4 1v19.1H61.7V1h18.7zM60.3 1v19.1H41.6V1h18.7zM40.2 1v19.1H21.5V1h18.7zM1 1h19.1v19.1H1V1zm19.1 20.5v6.9c-7.3-.9-13.9 1.3-19.1 6.5V21.5h19.1zM1 36.2c5.2-5.4 11.8-7.7 19.1-6.8v10.8H1v-4zm0 5.4h19.1v18.7H1V41.6zm0 20.1h19.1v18.7H1V61.7zm0 39.2V81.8h19.1v19.1H1zm20.5 0V81.8h18.7v19.1H21.5zm20.1 0V81.8h18.7v19.1H41.6zm20.1 0V81.8h18.7v19.1H61.7zm39.2 0H81.8V81.8h19.1v19.1zM81.8 80.4v-2.6c.3 0 .6.1.8.1 1 .1 2 .2 3 .2 5.7 0 10.8-2.2 15.3-6.5v8.8H81.8zm19.1-10c-5.2 5.2-11.3 7.4-18.1 6.6-.3 0-.6-.1-1-.1V61.7h19.1v8.7zm0-10.1H81.8V41.6h19.1v18.7zm0-20.1H81.8V21.5h19.1v18.7zM81.8 20.1V1h19.1v19.1H81.8z" /></symbol><symbol viewBox="0 0 112 112" id="icon-decor-02"><path d="M112 56c0-30.9-25.1-56-56-56S0 25.1 0 56c0 30.2 24.1 54.9 54.1 56H56c.6 0 1.3 0 1.9-.1 30-1 54.1-25.7 54.1-55.9zm-56.1 55h-.6c-8.7-.2-15.7-7.4-15.7-16.1 0-8.9 7.2-16.1 16.1-16.1S71.9 86 71.9 94.9c0 8.8-7.1 16-16 16.1zm17-16.1c0-9.4-7.7-17.1-17.1-17.1-9.4 0-17.1 7.7-17.1 17.1 0 5.8 2.9 11 7.4 14.1-9-3.9-15.3-12.8-15.3-23.2 0-13.9 11.3-25.2 25.2-25.2s25.2 11.3 25.2 25.2c0 10.8-6.8 20-16.4 23.6 4.9-3 8.1-8.4 8.1-14.5zm9.3-9.1c0-14.5-11.8-26.2-26.2-26.2-14.5 0-26.2 11.8-26.2 26.2 0 9.7 5.3 18.1 13.1 22.7-13-5.2-22.1-17.9-22.1-32.7 0-19.5 15.8-35.3 35.3-35.3 19.5 0 35.3 15.8 35.3 35.3 0 14.8-9.2 27.5-22.1 32.7 7.7-4.6 12.9-13.1 12.9-22.7zm10.1-10.1c0-20-16.3-36.3-36.3-36.3-20 0-36.3 16.3-36.3 36.3 0 13.6 7.6 25.5 18.7 31.7-16.3-6.9-27.8-23-27.8-41.8 0-25 20.3-45.3 45.3-45.3 25 0 45.3 20.3 45.3 45.3 0 18.8-11.5 34.9-27.8 41.8 11.3-6.1 18.9-18 18.9-31.7zm-14 30.5c14.3-7.9 24-23.1 24-40.6 0-25.5-20.8-46.3-46.3-46.3S9.7 40.1 9.7 65.7c0 17.5 9.7 32.7 24 40.6C14.4 97.7 1 78.4 1 56 1 25.7 25.7 1 56 1s55 24.7 55 55c0 22.4-13.4 41.7-32.7 50.2z" /></symbol><symbol viewBox="0 0 129.7 131" id="icon-decor-03"><path d="M124.7 60.2c2.5-12.8-1-26-9.4-35.6-2.8-3.1-6-5.8-9.6-7.9-2.7-1.5-5.9-2.6-9.2-3.4l-2.4-2.4C84.3 2 70.8-1.8 58.1.8c-4.1.8-8 2.3-11.6 4.3V5c-2.7 1.6-5.4 4-7.7 6.5-3.4.3-6.7.9-9.9 2C16.3 17.6 6.2 27.4 2.1 39.7c-1.4 4.2-2.1 8.6-2 13H0c.2 5.8 2 11.8 5.3 17.8-2.6 12.9.9 26.2 9.3 35.8 2.9 3.3 6.4 6.1 10.3 8.3 2.6 1.4 5.5 2.4 8.6 3.2.7.8 1.5 1.5 2.3 2.2 7.8 7.1 17.9 10.9 28.1 10.9 2.6 0 5.3-.3 7.9-.8 8.3-2.1 15-5.8 19.9-10.8 3.2-.3 6.3-.9 9.4-1.9 12.6-4.1 22.6-13.9 26.8-26.2 3.2-11.8 2.1-22.6-3.2-31zm-27.9 50c-1.4 3-3.3 5.7-5.6 8.2-7.6.7-15.5-.7-23.3-3.9.1-.1.3-.1.4-.2 9.5-3.9 17.3-10 23.5-17.1.2-.1.4-.2.7-.3 4.2-1.9 8-4.1 11.5-6.6-1.3 7-3.7 13.7-7.2 19.9zm-39.2 6.4c-8.9 1.8-16.8 1.9-23.6.4-6.7-7.1-10.9-16.3-12.3-27.1l.3.3c7.5 5.7 15.8 9.4 24.2 11.3 2.4 2.3 5 4.4 7.5 6.3 3.8 2.7 7.6 4.9 11.5 6.7-2.5.8-5 1.5-7.6 2.1zM7.8 72.8c0-.1-.1-.1-.1-.2-.5-.8-.9-1.5-1.3-2.3v-.1C8.7 59.5 15 50.1 24.5 42.7c0 .2-.1.3-.1.5-.6 4.9-.7 9.6-.2 14.3-2 5.7-3.3 11.3-3.8 16.7-.4 4.6-.4 9 0 13.3-2-1.7-3.9-3.6-5.7-5.5-2.7-3.1-5-6.1-6.9-9.2zm24.4-50.4c1.5-3 4-6.6 7-9.9 7.4-.6 15.2.8 22.8 3.9-.1.1-.3.1-.4.2-9.5 3.9-17.3 9.9-23.5 17-.2.1-.5.2-.7.3-4.2 1.9-8.1 4.1-11.5 6.6 1.1-6.3 3.3-12.4 6.3-18.1zM83.6 13c3.4-.2 8 .2 12.5 1.2 6.6 7 10.7 16.3 12.2 26.9l-.3-.3c-7.4-5.7-15.7-9.4-24.2-11.3-2.4-2.3-5-4.4-7.5-6.3-3.8-2.7-7.6-4.9-11.5-6.7 6-2.2 12.3-3.3 18.8-3.5zm24.9 43.6c-.4 4.5-1.5 9.4-3.1 14.3-2.2-15.9-10.4-30-20.3-40.1 7.8 2 15.3 5.5 22.2 10.8.4.3.8.6 1.1.9.5 4.5.5 9.2.1 14.1zM91 96.5c-12.1 5.2-28.5 7.5-44.4 3.9C35.8 90 27 74.8 25.2 57.7c2.9-8.1 7.4-16.2 13.5-23.2 12.4-5.4 28.7-7.7 44.5-4.1 10.7 10.4 19.6 25.5 21.5 42.7-3 8.1-7.5 16.3-13.7 23.4zM75.6 24c2.1 1.5 4.2 3.2 6.2 5-14.7-3-29.7-1-41.6 3.7 5.9-6.3 13.1-11.6 21.7-15.2.5-.2.9-.4 1.4-.5 4.2 1.8 8.3 4.1 12.3 7zm-39 11.5c-5 6.1-8.8 13-11.5 19.9-.3-3.9-.2-7.9.4-12 .1-.5.2-1 .2-1.5 3.2-2.4 6.9-4.5 10.9-6.4zM21.4 74.4c.4-4.7 1.5-9.6 3.1-14.5 2.2 15.9 10.3 30 20.2 40.1-7.8-2-15.3-5.4-22.1-10.6-.4-.3-.8-.6-1.1-.9-.5-4.5-.5-9.2-.1-14.1zM54.3 107c-2.1-1.5-4.2-3.2-6.2-5.1 4.8 1 9.6 1.4 14.3 1.4 9.7 0 19.1-1.9 27-5-5.8 6.3-13 11.6-21.5 15.1-.5.2-.9.3-1.4.5-4.1-1.8-8.2-4.1-12.2-6.9zm39.1-11.6c5-6.1 8.8-13 11.5-19.9.3 3.9.2 7.9-.4 12-.1.5-.2 1-.2 1.5-3.3 2.4-7 4.5-10.9 6.4zm12.1-7.8c.6-4.9.7-9.6.2-14.3 2-5.7 3.3-11.3 3.8-16.7.4-4.6.4-9 0-13.3 5.4 4.6 9.9 10 13.5 16.2h.1c.2.3.3.5.5.8v.3c-2.3 10.7-8.6 20.1-18.1 27.5-.1-.2 0-.3 0-.5zm-1.6-70.8c4 2.1 7.6 5 10.6 8.4 8 9.1 11.4 21.6 9.3 33.7 0 0 0-.1-.1-.1h-.1c-3.8-6.5-8.6-12.1-14.4-16.9-1.3-10.8-5.2-20.1-11.6-27.4 2.3.7 4.4 1.4 6.3 2.3zM45.8 6.7c3.9-2.4 8.1-4.1 12.6-5C70.7-.7 83.9 3 93.5 11.6c.4.4.9.8 1.3 1.2-3.3-.6-6.5-.9-9.3-.9-7.6 0-15 1.4-22.1 4-7.7-3.3-15.6-4.9-23.2-4.5C42 9.7 43.8 8 45.8 6.7zM3 40c4-12 13.8-21.5 26.2-25.5 2.8-.9 5.7-1.5 8.6-1.8-2.2 2.5-4.1 5.2-5.5 7.6-3.8 6.6-6.3 13.7-7.6 21.1-9.9 7.4-16.5 16.9-19.1 27.7C2.9 63.8 1.3 58.5 1 53.4c-.1-4.6.6-9.1 2-13.4zm23 74.1c-4-2.2-7.6-5-10.6-8.4-8-9.1-11.4-21.6-9.3-33.8.2.4.5.8.7 1.2 0 .1.1.1.1.2 3.7 6 8.3 11.2 13.6 15.7 1.3 10.8 5.2 20.2 11.7 27.6-2.2-.7-4.3-1.5-6.2-2.5zm45.6 15.1c-12.4 2.5-25.5-1.2-35.2-9.9-.4-.4-.8-.7-1.1-1.1 2.8.5 5.8.8 8.9.8h.3c7.6 0 15-1.4 22.1-4 7 3 14 4.5 20.9 4.5.9 0 1.8 0 2.7-.1-4.8 4.5-11 7.8-18.6 9.8zm55.3-38.3c-4 12-13.8 21.5-26.1 25.5-2.6.9-5.3 1.4-8.1 1.8 2.1-2.3 3.8-4.9 5.1-7.8h-.1c3.7-6.5 6.2-13.5 7.4-20.9 10-7.4 16.6-17 19.2-27.9 4.8 8.1 5.7 18.2 2.6 29.3z" /></symbol><symbol viewBox="0 0 125.5 124.5" id="icon-decor-04"><path d="m77 108.8-.3-1 34.7-10.4c6.4-1.9 11.1-6.9 12.6-13.3 1.5-6.3-.5-12.8-5.3-17.3L90.9 40.9l.7-.7 27.8 25.9c5.1 4.7 7.2 11.6 5.6 18.3-1.6 6.8-6.6 12-13.3 14L77 108.8zM48.6 94.8l-3.4-1.3 2.2-3.1.8.6-1.4 2 2.2.8z" /><path d="m79.3 109.9-3.4-1.3 2.2-3 .8.6-1.4 2 2.2.8zM46.3 93.7l-.3-1 47.9-14.3c1.1-.3 1.9-1.2 2.2-2.3.3-1.1-.1-2.2-.9-3l-5.9-5.5.7-.7 5.9 5.5c1.1 1 1.5 2.5 1.2 3.9-.3 1.5-1.4 2.6-2.9 3L46.3 93.7zM19.6 124.5c-5 0-9.8-1.9-13.6-5.5-5-4.7-7-11.5-5.5-18.1l8-34.7 1 .2-8 34.7c-1.5 6.3.5 12.7 5.2 17.2 4.9 4.6 11.7 6.3 18.2 4.4l36.7-10.6.3 1-36.7 10.6c-1.9.5-3.8.8-5.6.8zM37.3 48.5l-1.1-2.2-1.8 1.5-.6-.8 2.8-2.3 1.6 3.4z" /><path d="m9.9 69.2-1-2.2L7 68.4l-.6-.8 2.8-2.2 1.6 3.4zM28.8 98.5c-1.1 0-2.1-.4-2.9-1.2-1.1-1-1.5-2.5-1.2-3.9l11.2-47.8 1 .2-11.2 47.8c-.3 1.1.1 2.2.9 3 .8.8 2 1.1 3.1.8l7.8-2.2.3 1-7.8 2.1c-.4.1-.8.2-1.2.2zM13.2 51.4l-1-.2 8.9-36.5C22.7 8.1 27.6 2.9 34.3.9c6.8-2.1 14-.5 19.2 4.3l26.6 24.3-.7.7L52.9 5.9c-5-4.5-11.8-6.1-18.2-4.1-6.3 1.9-11 6.8-12.5 13.1l-9 36.5zM83.9 61.9l-3.7-.3.1-1 2.4.2-.3-2.2 1-.2z" /><path d="m80.5 30.5-3.7-.3.1-1 2.4.2-.3-2.3 1-.1zM82.9 61.6 46.2 28.1c-.9-.8-2-1-3.2-.7-1.1.3-1.9 1.2-2.2 2.3L39 37.4l-1-.2 1.9-7.8c.3-1.4 1.4-2.5 2.8-3 1.5-.4 3-.1 4.1.9l36.7 33.6-.6.7z" /></symbol><symbol viewBox="0 0 16 16" id="icon-facebook"><path d="M8 0c4.4 0 8 3.6 8 8 0 4-2.9 7.3-6.8 7.9v-5.6h1.9l.4-2.3H9.2V6.5c0-.6.3-1.3 1.3-1.3h1v-2S10.6 3 9.7 3c-1.8 0-3 1.1-3 3.1V8h-2v2.3h2v5.6C2.9 15.4 0 12 0 8c0-4.4 3.6-8 8-8z" /></symbol><symbol viewBox="0 0 15.4 13.9" id="icon-filter"><path d="M3.4 6.8c1.6 0 3-1.2 3.3-2.7h8.7V2.9H6.8C6.5 1.2 5.1 0 3.4 0 1.5 0 0 1.5 0 3.4s1.5 3.4 3.4 3.4zm0-5.6c1.2 0 2.2 1 2.2 2.2s-1 2.2-2.2 2.2-2.2-1-2.2-2.2 1-2.2 2.2-2.2zM12 7.1c-1.7 0-3.1 1.2-3.4 2.9H0v1.2h8.7c.3 1.6 1.7 2.7 3.3 2.7 1.9 0 3.4-1.5 3.4-3.4S13.9 7.1 12 7.1zm0 5.6c-1.2 0-2.2-1-2.2-2.2s1-2.2 2.2-2.2 2.2 1 2.2 2.2-1 2.2-2.2 2.2z" /></symbol><symbol viewBox="0 0 16 16" id="icon-instagram"><path d="M8 1.4h3.2c.8 0 1.2.2 1.5.3.4.1.6.3.9.6.3.3.5.5.6.9.1.3.2.7.3 1.5v6.4c0 .8-.2 1.2-.3 1.5-.1.4-.3.6-.6.9-.3.3-.5.5-.9.6-.3.1-.7.2-1.5.3H4.8c-.8 0-1.2-.2-1.5-.3-.4-.1-.6-.3-.9-.6-.3-.3-.5-.5-.6-.9-.1-.3-.2-.7-.3-1.5V4.7c0-.8.2-1.2.3-1.5.1-.4.3-.6.6-.9.3-.3.5-.5.9-.6.3 0 .7-.2 1.5-.2.8-.1 1.1-.1 3.2-.1zM8 0H4.7c-.9 0-1.4.2-1.9.4s-1 .5-1.4.9c-.5.5-.8.9-1 1.5-.2.5-.3 1-.4 1.9v6.6c0 .9.2 1.4.4 1.9s.5 1 .9 1.4c.4.4.9.7 1.4.9.5.2 1.1.3 1.9.4h6.6c.9 0 1.4-.2 1.9-.4s1-.5 1.4-.9c.4-.4.7-.9.9-1.4.2-.5.3-1.1.4-1.9V4.7c0-.9-.2-1.4-.4-1.9s-.5-1-.9-1.4c-.4-.4-.9-.7-1.4-.9-.5-.2-1.1-.3-1.9-.4-.8-.1-1-.1-3.2-.1z" /><path d="M8 3.9C5.7 3.9 3.9 5.7 3.9 8s1.8 4.1 4.1 4.1 4.1-1.8 4.1-4.1S10.3 3.9 8 3.9zm0 6.8c-1.5 0-2.7-1.2-2.7-2.7 0-1.5 1.2-2.7 2.7-2.7 1.5 0 2.7 1.2 2.7 2.7 0 1.5-1.2 2.7-2.7 2.7zM12.3 4.7c.5 0 1-.4 1-1s-.4-1-1-1-1 .4-1 1 .4 1 1 1z" /></symbol><symbol viewBox="0 0 18 18" id="icon-magnifying-glass"><path d="m18 16.4-4.8-5c1-1.7 1.3-3.7.8-5.7-.5-1.9-1.7-3.6-3.2-4.6C10.3.8 9.7.5 9.2.3h-.1C7.2-.3 5.4 0 3.7.9S.8 3.4.3 5.3v.1c-.4 1.4-.4 2.9 0 4.4.4 1.4 1.3 2.7 2.3 3.6S5 14.9 6.4 15s2.8-.2 4.1-.9c.5-.3.9-.6 1.3-.9l4.6 4.8 1.6-1.6zm-8.4-4.2c-.9.5-2 .7-2.9.6-1-.1-2-.5-2.7-1.2-1-.6-1.6-1.5-1.8-2.5S1.9 7 2.2 6 3 4 3.9 3.3c.8-.7 1.8-1.1 2.7-1.2 1-.1 2.1.1 2.9.6.9.5 1.7 1.3 2.2 2.2.3.6.5 1.3.6 2s0 1.4-.2 2.1c-.2.7-.5 1.3-1 1.9-.4.5-.9 1-1.5 1.3z" /></symbol><symbol viewBox="0 0 24 18" id="icon-mail"><path d="M24 18H0V0h24v18zM1 1.5V17h22V1.5l-11 10-11-10zM22.1 1H1.9L12 10.2 22.1 1z" style="fill-rule:evenodd;clip-rule:evenodd" /></symbol><symbol viewBox="0 0 8 2.4" id="icon-minus"><path d="M0 0h8v2.4H0V0z" /></symbol><symbol viewBox="0 0 18.6 17.5" id="icon-net"><path d="M1.9 12.9c.1-1.3.2-2.9.2-4.2 0-1.3-.1-2.8-.2-4.2C.8 4.3 0 3.4 0 2.3 0 1 1.1 0 2.5 0c1.3 0 2.3.9 2.4 2 1.4.1 3 .2 4.4.2s3-.1 4.4-.2c.2-1.1 1.2-2 2.4-2 1.4 0 2.5 1 2.5 2.3 0 1.1-.8 2-1.9 2.2-.1 1.3-.2 2.9-.2 4.2 0 1.3.1 2.8.2 4.2 1.1.2 1.9 1.2 1.9 2.2 0 1.3-1.1 2.3-2.5 2.3-1.3 0-2.3-.9-2.4-2-1.4-.1-3-.2-4.4-.2s-3 .1-4.4.2c-.2 1.1-1.2 2-2.4 2-1.4 0-2.5-1-2.5-2.3 0-1 .8-1.9 1.9-2.2zm1.4 2.7c.1-.1.1-.3.1-.4 0-.1 0-.2-.1-.3-.1-.3-.5-.5-.8-.5-.3 0-.5.1-.7.3-.1.1-.2.3-.2.5 0 .1 0 .3.1.4 0 0 0 .1.1.1.1.2.4.3.7.3.3 0 .6-.1.8-.4-.1 0-.1 0 0 0zM3.2 1.9c-.1-.3-.4-.4-.7-.4-.3 0-.5.1-.7.3l-.1.1c-.1.1-.1.3-.1.4 0 .2.1.4.2.5.1.2.4.4.7.4.4 0 .7-.2.8-.5 0-.1.1-.2.1-.3 0-.2-.1-.4-.2-.5zm.2 2.5c0 .5.1.9.1 1.4h2.7V3.6c-.6 0-1.1-.1-1.6-.1-.3.4-.7.7-1.2.9zm2.8 2.9H3.6v3h2.6v-3zm1.6-3.7v2.2h3.1V3.6H7.8zm3.1 3.7H7.8v2.9h3.1V7.3zm4.5 8.3c.2.2.4.4.8.4.3 0 .5-.1.7-.3l.1-.1c.1-.1.1-.3.1-.4 0-.2-.1-.4-.2-.5-.2-.2-.4-.3-.7-.3-.4 0-.7.2-.8.5 0 .1-.1.2-.1.3 0 .1 0 .3.1.4zM15 7.3h-2.6v2.9H15V7.3zm.2 5.8c0-.5-.1-.9-.1-1.4h-2.7V14c.6 0 1.1.1 1.6.1.3-.5.7-.8 1.2-1zm-2.8-7.3h2.7c0-.5.1-1 .1-1.4-.5-.2-.9-.5-1.1-1-.5 0-1.1.1-1.6.1v2.3zM17 1.9s0-.1-.1-.1c-.2-.2-.4-.3-.7-.3-.3 0-.6.2-.8.4-.1.1-.1.3-.1.4 0 .1 0 .2.1.3.1.3.5.5.8.5.3 0 .5-.1.7-.3.1-.1.2-.3.2-.5 0-.1-.1-.3-.1-.4zm-6.1 12v-2.2H7.8v2.2h1.6c.4-.1.9-.1 1.5 0zm-4.7-2.2H3.5c0 .5-.1 1-.1 1.4.5.2.9.5 1.1 1 .5 0 1.1-.1 1.6-.1v-2.3z" /></symbol><symbol viewBox="0 0 58.9 75.1" id="icon-play"><path d="M58.9 37.6 0 0v75.1l58.9-37.5z" /></symbol><symbol viewBox="0 0 8 8" id="icon-plus"><path d="M0 3.1h3.1V0h1.8v3.1H8v1.8H4.9V8H3.1V4.9H0V3.1z" /></symbol><symbol viewBox="0 0 15.3 11.6" id="icon-quote-left"><path d="M6.2 3.8c-.6 0-1.1.2-1.5.7-.3.5-.5 1.1-.5 1.8v5.3H0V6.1c0-1.8.5-3.3 1.5-4.4C2.4.6 3.7 0 5.2 0h1.6v3.8h-.6zm2.3 2.3c0-1.8.5-3.3 1.5-4.4C11 .6 12.2 0 13.8 0h1.6v3.8h-.7c-.6 0-1.1.2-1.5.7-.4.4-.5 1-.5 1.8v5.3H8.5V6.1z" /></symbol><symbol viewBox="0 0 15.3 11.6" id="icon-quote-right"><path d="M9.1 7.8c.6 0 1.1-.2 1.5-.7.4-.5.5-1.1.5-1.8V0h4.2v5.6c0 1.8-.5 3.3-1.5 4.4-1 1.1-2.2 1.7-3.8 1.7H8.4V7.8h.7zm-8.4 0c.6 0 1.1-.2 1.5-.7.4-.5.5-1.1.5-1.8V0h4.2v5.6c0 1.8-.5 3.3-1.5 4.4-1 1.1-2.2 1.7-3.8 1.7H0V7.8h.7z" /></symbol><symbol viewBox="0 0 24.9 20.1" id="icon-sea"><path d="m22.6 2.8-.2-.2-.9-1.1c-1.9-2.3-5.5-2-7.1.5l-.1.2c-.8 1.3-2.6 1.3-3.3 0C9.4-.3 5.7-.4 3.9 2.1l-.4.6c-.4.5-.8.8-1.2.9-.8.3-1.6.2-2.3-.3v2.5c.7.3 1.5.3 2.3.2 1.2-.2 2.3-.9 3-1.9l.5-.7c.8-1.2 2.5-1.1 3.2.1 1.6 2.7 5.6 2.7 7.2 0l.1-.2c.8-1.3 2.5-1.4 3.5-.3l.9 1.1c.5.7 1.2 1.1 1.9 1.5.7.3 1.5.4 2.3.4V3.8c-.9 0-1.7-.3-2.3-1zM22.4 9.7l-.9-1.1c-1.9-2.3-5.5-2-7.1.5l-.1.2c-.8 1.3-2.6 1.3-3.3 0-1.6-2.6-5.3-2.7-7.1-.2l-.4.7c-.3.4-.7.7-1.2.9-.7.3-1.6.2-2.3-.3v2.5c.7.2 1.5.3 2.3.1 1.2-.2 2.3-.9 3-1.9l.5-.7c.8-1.1 2.5-1.1 3.2.1 1.6 2.7 5.6 2.7 7.2 0l.1-.2c.7-1.2 2.5-1.4 3.4-.3l.9 1.1c.5.7 1.2 1.1 1.9 1.5.7.3 1.5.5 2.3.5v-2.3c-.8 0-1.6-.3-2.3-.9 0-.1 0-.1-.1-.2zM22.4 16.7l-.9-1.1c-1.9-2.3-5.5-2-7.1.5l-.1.2c-.8 1.3-2.6 1.3-3.3 0-1.6-2.6-5.3-2.7-7.1-.2l-.5.7c-.3.4-.7.7-1.2.9-.7.3-1.5.2-2.2-.3v2.5c.7.2 1.5.3 2.3.1 1.2-.2 2.3-.9 3-1.9l.5-.7c.8-1.2 2.5-1.1 3.3.1 1.6 2.7 5.6 2.7 7.2 0l.1-.2c.7-1.2 2.5-1.4 3.4-.3l.9 1.1c.5.7 1.2 1.1 1.9 1.5.7.3 1.5.5 2.3.5v-2.3c-.8 0-1.6-.3-2.3-.9-.1 0-.1-.1-.2-.2z" /></symbol><symbol viewBox="0 0 28.5 21.6" id="icon-shirt"><path d="M21.4 0h-3.5v.1h-1c0 1.5-1.2 2.7-2.7 2.7-1.5 0-2.7-1.2-2.7-2.7h-1V0H7L0 6.2l4.6 5.9 2.2-1.7v11.2h14.9V10.4l2.2 1.7 4.6-5.9L21.4 0zm2.1 9.2-3.9-3v13.3H8.8V6.2l-3.9 3-2.1-2.7 5-4.4h2.1c.8 1.6 2.4 2.8 4.3 2.8s3.6-1.1 4.3-2.8h2.1l5 4.4-2.1 2.7z" /></symbol><symbol viewBox="0 0 66 66" id="icon-spinner"><path d="M33 66C14.8 66 0 51.2 0 33h6c0 14.9 12.1 27 27 27s27-12.1 27-27S47.9 6 33 6V0c18.2 0 33 14.8 33 33S51.2 66 33 66z" /></symbol><symbol viewBox="0 0 28 28" id="icon-square"><path d="M28 28H0V0h28v28zM1.6 26.4h24.7V1.6H1.6v24.8z" /></symbol><symbol viewBox="0 0 22 24" id="icon-trash-can"><path d="M8 3h6V1.2c0-.1 0-.1-.1-.2s-.1 0-.1 0H8.2s-.1 0-.1.1-.1.1-.1.1V3zm11 1H3v18c0 .6.4 1 1 1h14c.6 0 1-.4 1-1V4zM9 7.5c0-.3-.2-.5-.5-.5s-.5.2-.5.5v12c0 .3.2.5.5.5s.5-.2.5-.5v-12zm5 0c0-.3-.2-.5-.5-.5s-.5.2-.5.5v12c0 .3.2.5.5.5s.5-.2.5-.5v-12zM22 3v1h-2v18c0 1.1-.9 2-2 2H4c-1.1 0-2-.9-2-2V4H0V3h7V1c0-.6.4-1 1-1h6c.6 0 1 .4 1 1v2h7z" style="fill-rule:evenodd;clip-rule:evenodd" /></symbol><symbol viewBox="0 0 16 16" id="icon-twitch"><path d="m1.4 0-1 2.7V14h3.8v2h2.1l2-2h3.1l4.2-4.2V0H1.4zm12.8 9.1-2.4 2.4H8l-2 2v-2H2.7v-10h11.5v7.6zm-2.4-4.9v4.2h-1.4V4.2h1.4zM8 4.2v4.2H6.6V4.2H8z" /></symbol><symbol viewBox="0 0 16 16" id="icon-youtube"><path d="M15.7 4.3c-.2-.7-.7-1.2-1.4-1.3C13 2.7 8 2.7 8 2.7s-5 0-6.3.3c-.6.2-1.2.7-1.4 1.3C0 5.5 0 8 0 8s0 2.5.3 3.7c.2.7.7 1.2 1.4 1.3 1.3.3 6.3.3 6.3.3s5 0 6.3-.3c.7-.2 1.2-.7 1.4-1.3.3-1.2.3-3.7.3-3.7s0-2.5-.3-3.7zm-9.3 6V5.7L10.6 8l-4.2 2.3z" /></symbol></defs></svg>