<svg xmlns="http://www.w3.org/2000/svg" xmlns:xlink="http://www.w3.org/1999/xlink"><defs><symbol viewBox="0 0 6 6" id="icon-arrow-up-right"><path d="M.3 0v.9h4.2L0 5.4l.6.6 4.5-4.5v4.2H6V0z" /></symbol><symbol viewBox="0 0 17 18" id="icon-bag-shopping"><path d="M15.1 5.3h-2.5V4c0-.5-.1-1-.3-1.5-.2-.5-.5-.9-.9-1.3s-.8-.7-1.3-.9C9.6.1 9 0 8.5 0S7.4.1 6.9.3s-.9.5-1.3.9c-.4.3-.7.8-.9 1.3-.2.4-.3 1-.3 1.5v1.3H0V18h17V5.3h-1.9zM6.1 4c0-.6.3-1.2.7-1.6.4-.4 1-.7 1.7-.7s1.2.3 1.7.7c.4.4.7 1 .7 1.6v1.3H6.1V4zm9 12.2H1.9v-9h13.2v9z" /></symbol><symbol viewBox="0 0 21 14" id="icon-bars"><path d="M0 0h21v2H0zM0 6h21v2H0zM0 12h21v2H0z" /></symbol><symbol viewBox="0 0 13.9 23.9" id="icon-bottle"><path d="M10.1 1c0-.5-.3-1-.8-1H4.6c-.4 0-.8.4-.8 1v3H10V1zM12.3 7.7C11.8 7 10.1 5 10.1 5H3.9S2.6 6.7 2 7.3C.6 8.9 0 9.8 0 11.8v12.1h14V11.8c-.1-1.8-.5-2.7-1.7-4.1zm-.4 14.2H2v-10c0-1.3.3-1.8 1.3-3.1.2-.3.8-1.1 1.5-1.8h4.4c.7.8 1.3 1.6 1.6 2 .9 1.2 1.1 1.7 1.1 3v9.9z" /></symbol><symbol viewBox="0 0 61 56.9" id="icon-c-logo"><path d="M22.4 56.9c11.4 0 19.7-6.5 20.5-16h-9.6c-.8 4.6-5.2 7.7-10.9 7.7-7.2 0-12.8-5-12.8-14.6s5.6-14.6 12.8-14.6c5.6 0 10 3.1 10.7 7.8h10c-1.2-9.7-9.5-16-20.7-16C10.5 11.1 0 18.9 0 34s10.3 22.9 22.4 22.9zM52 17.2c5.2 0 9-3.7 9-8.6C61 3.7 57.2 0 52 0s-8.9 3.7-8.9 8.6c0 4.9 3.8 8.6 8.9 8.6zm0-5.3c-2 0-3.4-1.3-3.4-3.3 0-2 1.4-3.3 3.4-3.3 2.1 0 3.5 1.3 3.5 3.3 0 1.9-1.4 3.3-3.5 3.3z" /></symbol><symbol viewBox="0 0 110 20" id="icon-corail-logo"><path d="M9.7 20c5 0 8.5-2.8 8.9-7h-4.1c-.3 2-2.2 3.4-4.7 3.4-3.1 0-5.5-2.2-5.5-6.3 0-4.2 2.4-6.4 5.5-6.4 2.4 0 4.3 1.4 4.6 3.4h4.3c-.5-4.2-4.1-7-9-7C4.5.1 0 3.5 0 10.1 0 16.6 4.5 20 9.7 20zM30.2 20c5.7 0 9.9-4.2 9.9-9.9S35.9.2 30.2.2s-9.9 4.2-9.9 9.9 4.2 9.9 9.9 9.9zm0-3.6c-3.3 0-5.7-2.7-5.7-6.3 0-3.6 2.4-6.4 5.7-6.4s5.7 2.7 5.7 6.4c0 3.6-2.4 6.3-5.7 6.3zM57.3 14.4c-.2-1.7-1-3.1-2.2-3.9 1.5-.8 2.4-2.1 2.4-4.1 0-3.6-2.4-6.1-6.5-6.1h-8.2v19.4H47v-7.1h3.8c1.3 0 2.2.9 2.4 2.2l.5 4.8h4.1l-.5-5.2zM47 3.8h3.8c1.9 0 2.7 1.2 2.7 2.6 0 1.4-.8 2.7-2.7 2.7H47V3.8zM74 19.8h4.3L71 .3h-4l-7.4 19.4H64l1.5-4.2h7l1.5 4.3zM66.7 12 69 5.7l2.2 6.3h-4.5zM80 19.8h4.2V.3H80v19.5zM87.8 19.8h13v-3.6H92V.3h-4.2v19.5zM106.1 7.5c2.2 0 3.9-1.6 3.9-3.7S108.3 0 106.1 0s-3.8 1.6-3.8 3.8c0 2.1 1.6 3.7 3.8 3.7zm0-2.3c-.9 0-1.5-.6-1.5-1.4 0-.9.6-1.4 1.5-1.4s1.5.6 1.5 1.4c0 .8-.6 1.4-1.5 1.4z" /></symbol><symbol viewBox="0 0 101.9 101.9" id="icon-decor-01"><path d="M81.8 0H0v101.9h101.9V0H81.8zm-1.4 40.2H61.7V21.5h18.7v18.7zm0 20.1H61.7V41.6h18.7v18.7zm0 16.3c-6.8-1.5-13.3-5.8-18.7-11v-3.9h18.7v14.9zm-40.2 3.8H21.5V61.7h18.7v18.7zM21.5 41.6h18.7v18.7H21.5V41.6zm0-11.9c6.4 1.2 13 4.9 18.7 10.1v.4H21.5V29.7zm38.8 30.6h-3.5c-2.1-2.6-3.9-5.2-5.4-7.7-2.1-4-4.8-7.7-7.9-11h16.8v18.7zM41.6 41.6h.5c3.3 3.4 6.2 7.3 8.4 11.5 1.5 2.6 3.2 5.1 4.9 7.3H41.6V41.6zm18.7 20.1v2.5c-.8-.8-1.6-1.7-2.3-2.5h2.3zm0-21.5H42.2l-.6-.6V21.5h18.7v18.7zm-20.1-1.8c-5.7-5.1-12.3-8.6-18.7-9.7v-7.1h18.7v16.8zm1.4 23.3h15c1.2 1.5 2.5 2.8 3.8 4.1v14.7H41.6V61.7zm20.1 5.4c6.3 5.7 13 9.2 18.7 10.5v2.9H61.7V67.1zM80.4 1v19.1H61.7V1h18.7zM60.3 1v19.1H41.6V1h18.7zM40.2 1v19.1H21.5V1h18.7zM1 1h19.1v19.1H1V1zm19.1 20.5v6.9c-7.3-.9-13.9 1.3-19.1 6.5V21.5h19.1zM1 36.2c5.2-5.4 11.8-7.7 19.1-6.8v10.8H1v-4zm0 5.4h19.1v18.7H1V41.6zm0 20.1h19.1v18.7H1V61.7zm0 39.2V81.8h19.1v19.1H1zm20.5 0V81.8h18.7v19.1H21.5zm20.1 0V81.8h18.7v19.1H41.6zm20.1 0V81.8h18.7v19.1H61.7zm39.2 0H81.8V81.8h19.1v19.1zM81.8 80.4v-2.6c.3 0 .6.1.8.1 1 .1 2 .2 3 .2 5.7 0 10.8-2.2 15.3-6.5v8.8H81.8zm19.1-10c-5.2 5.2-11.3 7.4-18.1 6.6-.3 0-.6-.1-1-.1V61.7h19.1v8.7zm0-10.1H81.8V41.6h19.1v18.7zm0-20.1H81.8V21.5h19.1v18.7zM81.8 20.1V1h19.1v19.1H81.8z" /></symbol><symbol viewBox="0 0 112 112" id="icon-decor-02"><path d="M112 56c0-30.9-25.1-56-56-56S0 25.1 0 56c0 30.2 24.1 54.9 54.1 56H56c.6 0 1.3 0 1.9-.1 30-1 54.1-25.7 54.1-55.9zm-56.1 55h-.6c-8.7-.2-15.7-7.4-15.7-16.1 0-8.9 7.2-16.1 16.1-16.1S71.9 86 71.9 94.9c0 8.8-7.1 16-16 16.1zm17-16.1c0-9.4-7.7-17.1-17.1-17.1-9.4 0-17.1 7.7-17.1 17.1 0 5.8 2.9 11 7.4 14.1-9-3.9-15.3-12.8-15.3-23.2 0-13.9 11.3-25.2 25.2-25.2s25.2 11.3 25.2 25.2c0 10.8-6.8 20-16.4 23.6 4.9-3 8.1-8.4 8.1-14.5zm9.3-9.1c0-14.5-11.8-26.2-26.2-26.2-14.5 0-26.2 11.8-26.2 26.2 0 9.7 5.3 18.1 13.1 22.7-13-5.2-22.1-17.9-22.1-32.7 0-19.5 15.8-35.3 35.3-35.3 19.5 0 35.3 15.8 35.3 35.3 0 14.8-9.2 27.5-22.1 32.7 7.7-4.6 12.9-13.1 12.9-22.7zm10.1-10.1c0-20-16.3-36.3-36.3-36.3-20 0-36.3 16.3-36.3 36.3 0 13.6 7.6 25.5 18.7 31.7-16.3-6.9-27.8-23-27.8-41.8 0-25 20.3-45.3 45.3-45.3 25 0 45.3 20.3 45.3 45.3 0 18.8-11.5 34.9-27.8 41.8 11.3-6.1 18.9-18 18.9-31.7zm-14 30.5c14.3-7.9 24-23.1 24-40.6 0-25.5-20.8-46.3-46.3-46.3S9.7 40.1 9.7 65.7c0 17.5 9.7 32.7 24 40.6C14.4 97.7 1 78.4 1 56 1 25.7 25.7 1 56 1s55 24.7 55 55c0 22.4-13.4 41.7-32.7 50.2z" /></symbol><symbol viewBox="0 0 16 16" id="icon-facebook"><path d="M8 0c4.4 0 8 3.6 8 8 0 4-2.9 7.3-6.8 7.9v-5.6h1.9l.4-2.3H9.2V6.5c0-.6.3-1.3 1.3-1.3h1v-2S10.6 3 9.7 3c-1.8 0-3 1.1-3 3.1V8h-2v2.3h2v5.6C2.9 15.4 0 12 0 8c0-4.4 3.6-8 8-8z" /></symbol><symbol viewBox="0 0 16 16" id="icon-instagram"><path d="M8 1.4h3.2c.8 0 1.2.2 1.5.3.4.1.6.3.9.6.3.3.5.5.6.9.1.3.2.7.3 1.5v6.4c0 .8-.2 1.2-.3 1.5-.1.4-.3.6-.6.9-.3.3-.5.5-.9.6-.3.1-.7.2-1.5.3H4.8c-.8 0-1.2-.2-1.5-.3-.4-.1-.6-.3-.9-.6-.3-.3-.5-.5-.6-.9-.1-.3-.2-.7-.3-1.5V4.7c0-.8.2-1.2.3-1.5.1-.4.3-.6.6-.9.3-.3.5-.5.9-.6.3 0 .7-.2 1.5-.2.8-.1 1.1-.1 3.2-.1zM8 0H4.7c-.9 0-1.4.2-1.9.4s-1 .5-1.4.9c-.5.5-.8.9-1 1.5-.2.5-.3 1-.4 1.9v6.6c0 .9.2 1.4.4 1.9s.5 1 .9 1.4c.4.4.9.7 1.4.9.5.2 1.1.3 1.9.4h6.6c.9 0 1.4-.2 1.9-.4s1-.5 1.4-.9c.4-.4.7-.9.9-1.4.2-.5.3-1.1.4-1.9V4.7c0-.9-.2-1.4-.4-1.9s-.5-1-.9-1.4c-.4-.4-.9-.7-1.4-.9-.5-.2-1.1-.3-1.9-.4-.8-.1-1-.1-3.2-.1z" /><path d="M8 3.9C5.7 3.9 3.9 5.7 3.9 8s1.8 4.1 4.1 4.1 4.1-1.8 4.1-4.1S10.3 3.9 8 3.9zm0 6.8c-1.5 0-2.7-1.2-2.7-2.7 0-1.5 1.2-2.7 2.7-2.7 1.5 0 2.7 1.2 2.7 2.7 0 1.5-1.2 2.7-2.7 2.7zM12.3 4.7c.5 0 1-.4 1-1s-.4-1-1-1-1 .4-1 1 .4 1 1 1z" /></symbol><symbol viewBox="0 0 18 18" id="icon-magnifying-glass"><path d="m18 16.4-4.8-5c1-1.7 1.3-3.7.8-5.7-.5-1.9-1.7-3.6-3.2-4.6C10.3.8 9.7.5 9.2.3h-.1C7.2-.3 5.4 0 3.7.9S.8 3.4.3 5.3v.1c-.4 1.4-.4 2.9 0 4.4.4 1.4 1.3 2.7 2.3 3.6S5 14.9 6.4 15s2.8-.2 4.1-.9c.5-.3.9-.6 1.3-.9l4.6 4.8 1.6-1.6zm-8.4-4.2c-.9.5-2 .7-2.9.6-1-.1-2-.5-2.7-1.2-1-.6-1.6-1.5-1.8-2.5S1.9 7 2.2 6 3 4 3.9 3.3c.8-.7 1.8-1.1 2.7-1.2 1-.1 2.1.1 2.9.6.9.5 1.7 1.3 2.2 2.2.3.6.5 1.3.6 2 .1.7 0 1.4-.2 2.1-.2.7-.5 1.3-1 1.9-.4.5-.9 1-1.5 1.3z" /></symbol><symbol viewBox="0 0 18 1.5" id="icon-minus"><path d="M18 .8c0-.5-.3-.8-.8-.8H.8C.3 0 0 .3 0 .8s.3.8.8.8h16.5c.4-.1.7-.4.7-.8z" /></symbol><symbol viewBox="0 0 58.9 75.1" id="icon-play"><path d="M58.9 37.6 0 0v75.1l58.9-37.5z" /></symbol><symbol viewBox="0 0 17.5 17.5" id="icon-plus"><path d="M8 8H.8c-.5 0-.8.3-.8.8s.3.8.8.8H8v7.2c0 .4.3.8.8.8s.8-.3.8-.8V9.5h7.2c.4 0 .8-.3.8-.8s-.4-.7-.8-.7H9.5V.8c0-.5-.3-.8-.7-.8S8 .3 8 .8V8z" /></symbol><symbol viewBox="0 0 24.9 20.1" id="icon-sea"><path d="m22.6 2.8-.2-.2-.9-1.1c-1.9-2.3-5.5-2-7.1.5l-.1.2c-.8 1.3-2.6 1.3-3.3 0C9.4-.3 5.7-.4 3.9 2.1l-.4.6c-.4.5-.8.8-1.2.9-.8.3-1.6.2-2.3-.3v2.5c.7.3 1.5.3 2.3.2 1.2-.2 2.3-.9 3-1.9l.5-.7c.8-1.2 2.5-1.1 3.2.1 1.6 2.7 5.6 2.7 7.2 0l.1-.2c.8-1.3 2.5-1.4 3.5-.3l.9 1.1c.5.7 1.2 1.1 1.9 1.5.7.3 1.5.4 2.3.4V3.8c-.9 0-1.7-.3-2.3-1zM22.4 9.7l-.9-1.1c-1.9-2.3-5.5-2-7.1.5l-.1.2c-.8 1.3-2.6 1.3-3.3 0-1.6-2.6-5.3-2.7-7.1-.2l-.4.7c-.3.4-.7.7-1.2.9-.7.3-1.6.2-2.3-.3v2.5c.7.2 1.5.3 2.3.1 1.2-.2 2.3-.9 3-1.9l.5-.7c.8-1.1 2.5-1.1 3.2.1 1.6 2.7 5.6 2.7 7.2 0l.1-.2c.7-1.2 2.5-1.4 3.4-.3l.9 1.1c.5.7 1.2 1.1 1.9 1.5.7.3 1.5.5 2.3.5v-2.3c-.8 0-1.6-.3-2.3-.9 0-.1 0-.1-.1-.2zM22.4 16.7l-.9-1.1c-1.9-2.3-5.5-2-7.1.5l-.1.2c-.8 1.3-2.6 1.3-3.3 0-1.6-2.6-5.3-2.7-7.1-.2l-.5.7c-.3.4-.7.7-1.2.9-.7.3-1.5.2-2.2-.3v2.5c.7.2 1.5.3 2.3.1 1.2-.2 2.3-.9 3-1.9l.5-.7c.8-1.2 2.5-1.1 3.3.1 1.6 2.7 5.6 2.7 7.2 0l.1-.2c.7-1.2 2.5-1.4 3.4-.3l.9 1.1c.5.7 1.2 1.1 1.9 1.5.7.3 1.5.5 2.3.5v-2.3c-.8 0-1.6-.3-2.3-.9-.1 0-.1-.1-.2-.2z" /></symbol><symbol viewBox="0 0 28.5 21.6" id="icon-shirt"><path d="M21.4 0h-3.5v.1h-1c0 1.5-1.2 2.7-2.7 2.7-1.5 0-2.7-1.2-2.7-2.7h-1V0H7L0 6.2l4.6 5.9 2.2-1.7v11.2h14.9V10.4l2.2 1.7 4.6-5.9L21.4 0zm2.1 9.2-3.9-3v13.3H8.8V6.2l-3.9 3-2.1-2.7 5-4.4h2.1c.8 1.6 2.4 2.8 4.3 2.8s3.6-1.1 4.3-2.8h2.1l5 4.4-2.1 2.7z" /></symbol><symbol aria-hidden="true" class="spinner" viewBox="0 0 66 66" id="icon-spinner"><circle class="path" fill="none" cx="33" cy="33" r="30" /></symbol><symbol viewBox="0 0 22 24" id="icon-trash-can"><path d="M8 3h6V1.2c0-.1 0-.1-.1-.2s-.1 0-.1 0H8.2s-.1 0-.1.1-.1.1-.1.1V3zm11 1H3v18c0 .6.4 1 1 1h14c.6 0 1-.4 1-1V4zM9 7.5c0-.3-.2-.5-.5-.5s-.5.2-.5.5v12c0 .3.2.5.5.5s.5-.2.5-.5v-12zm5 0c0-.3-.2-.5-.5-.5s-.5.2-.5.5v12c0 .3.2.5.5.5s.5-.2.5-.5v-12zM22 3v1h-2v18c0 1.1-.9 2-2 2H4c-1.1 0-2-.9-2-2V4H0V3h7V1c0-.6.4-1 1-1h6c.6 0 1 .4 1 1v2h7z" style="fill-rule:evenodd;clip-rule:evenodd" /></symbol><symbol viewBox="0 0 16 16" id="icon-twitch"><path d="m1.4 0-1 2.7V14h3.8v2h2.1l2-2h3.1l4.2-4.2V0H1.4zm12.8 9.1-2.4 2.4H8l-2 2v-2H2.7v-10h11.5v7.6zm-2.4-4.9v4.2h-1.4V4.2h1.4zM8 4.2v4.2H6.6V4.2H8z" /></symbol><symbol viewBox="0 0 16 16" id="icon-youtube"><path d="M15.7 4.3c-.2-.7-.7-1.2-1.4-1.3C13 2.7 8 2.7 8 2.7s-5 0-6.3.3c-.6.2-1.2.7-1.4 1.3C0 5.5 0 8 0 8s0 2.5.3 3.7c.2.7.7 1.2 1.4 1.3 1.3.3 6.3.3 6.3.3s5 0 6.3-.3c.7-.2 1.2-.7 1.4-1.3.3-1.2.3-3.7.3-3.7s0-2.5-.3-3.7zm-9.3 6V5.7L10.6 8l-4.2 2.3z" /></symbol></defs></svg>