<svg width="1279" height="233" viewBox="0 0 1279 233" fill="none" xmlns="http://www.w3.org/2000/svg">
<path d="M112.868 233.002C170.427 233.002 211.908 200.318 216.089 151.776H167.855C163.996 175.076 141.808 190.933 112.868 190.933C76.5314 190.933 48.5557 165.691 48.5557 117.15C48.5557 68.608 76.5314 43.0427 112.868 43.0427C141.165 43.0427 163.353 58.8996 166.568 82.5233H217.053C210.944 33.658 169.462 1.29688 112.868 1.29688C52.736 1.29688 0 40.7774 0 117.15C0 193.522 51.7713 233.002 112.868 233.002Z" fill="#333333"/>
<path d="M351.265 233.002C417.185 233.002 466.062 183.814 466.062 117.15C466.062 50.4857 417.185 1.29688 351.265 1.29688C285.023 1.29688 236.146 50.4857 236.146 117.15C236.146 183.814 285.023 233.002 351.265 233.002ZM350.943 190.933C312.356 190.933 284.702 159.543 284.702 117.15C284.702 74.7566 312.356 43.0427 350.943 43.0427C389.531 43.0427 417.506 74.7566 417.506 117.15C417.506 159.543 389.531 190.933 350.943 190.933Z" fill="#333333"/>
<path d="M665.824 167.957C663.895 148.216 654.569 132.359 640.099 122.327C657.463 113.266 668.397 97.733 668.397 75.0802C668.397 33.658 640.421 3.88575 592.508 3.88575H497.648V230.414H546.203V148.216H589.936C605.049 148.216 615.982 158.895 617.59 174.429L623.7 230.414H671.934L665.824 167.957ZM546.203 44.3371H589.936C612.123 44.3371 621.77 58.8996 621.77 75.0802C621.77 91.5844 612.123 106.47 589.936 106.47H546.203V44.3371Z" fill="#333333"/>
<path d="M860.351 230.414H910.514L824.979 3.88575H778.996L693.461 230.414H743.624L761.31 180.901H842.665L860.351 230.414ZM775.78 140.126L802.148 66.6663L828.195 140.126H775.78Z" fill="#333333"/>
<path d="M930.373 230.414H978.929V3.88575H930.373V230.414Z" fill="#333333"/>
<path d="M1020.81 230.414H1171.62V188.344H1069.37V3.88575H1020.81V230.414Z" fill="#333333"/>
<path d="M1233.66 87.0514C1259.71 87.0514 1279 68.2819 1279 43.6875C1279 18.7694 1259.71 0 1233.66 0C1207.61 0 1188.96 18.7694 1188.96 43.6875C1188.96 68.2819 1207.61 87.0514 1233.66 87.0514ZM1233.66 60.1917C1223.69 60.1917 1216.62 53.3958 1216.62 43.6875C1216.62 33.6555 1223.69 27.1833 1233.66 27.1833C1244.27 27.1833 1251.02 33.6555 1251.02 43.6875C1251.02 53.3958 1244.27 60.1917 1233.66 60.1917Z" fill="#333333"/>
</svg>
